<svg width="41" height="40" viewBox="0 0 41 40" fill="none" xmlns="http://www.w3.org/2000/svg">
<path d="M36.0058 26.5168H27.3766V27.955H36.0058C37.1744 27.955 38.0732 27.0562 38.0732 25.8876V24.4494C38.0732 25.618 37.1744 26.5168 36.0058 26.5168ZM25.3092 37.2135H14.9721C13.8036 37.2135 12.9047 36.3146 12.9047 35.1461V36.5843C12.9047 37.7528 13.8036 38.6517 14.9721 38.6517H25.3092C26.4777 38.6517 27.3766 37.7528 27.3766 36.5843V35.1461C27.3766 36.3146 26.4777 37.2135 25.3092 37.2135ZM12.9047 26.5168H4.27548C3.10695 26.5168 2.20807 25.618 2.20807 24.4494V25.8876C2.20807 27.0562 3.10695 27.955 4.27548 27.955H12.9047V26.5168Z" fill="#00AEFF"/>
<path d="M36.0058 12.045H27.3766V3.41574C27.3766 2.2472 26.4777 1.34833 25.3092 1.34833H14.9721C13.8036 1.34833 12.9047 2.2472 12.9047 3.41574V12.045H4.27548C3.10695 12.045 2.20807 12.9438 2.20807 14.1124V24.4495C2.20807 25.618 3.10695 26.5169 4.27548 26.5169H12.9047V35.1461C12.9047 36.3146 13.8036 37.2135 14.9721 37.2135H25.3092C26.4777 37.2135 27.3766 36.3146 27.3766 35.1461V26.5169H36.0058C37.1744 26.5169 38.0732 25.618 38.0732 24.4495V14.1124C38.0732 12.9438 37.1744 12.045 36.0058 12.045Z" fill="white"/>
<path d="M23.1519 23.0112C23.1519 23.191 23.2418 23.4607 23.2418 23.7303C23.2418 23.8202 23.2418 23.9101 23.2418 23.9101C23.1519 24.1798 23.062 24.5393 23.062 24.5393C23.062 24.5393 22.7923 24.8989 22.7024 25.1686C22.6126 25.5281 22.5227 26.0674 22.5227 26.0674C22.5227 26.0674 21.9833 26.3371 21.7137 26.5169C21.444 26.6966 21.1744 26.8764 21.0845 27.0562C21.0845 27.0562 20.4553 27.1461 20.2755 27.236C20.2755 27.3259 20.1856 27.3259 20.1856 27.3259C20.0058 27.3259 20.0058 27.1461 19.9159 27.1461C19.9159 27.1461 19.826 27.1461 19.7362 27.236C19.6463 27.3259 19.4665 27.4157 19.2867 27.4157C19.017 27.4157 18.5676 27.3259 18.4777 27.3259C18.4777 27.3259 18.3878 27.3259 18.2979 27.3259C18.1182 27.3259 17.9384 27.3259 17.8485 27.3259C17.8485 27.3259 17.8485 27.3259 17.7586 27.3259V27.4157H17.6687C17.5788 27.3259 17.5788 27.3259 17.489 27.3259L17.3991 27.236H17.489C17.489 27.236 17.7586 27.1461 17.8485 27.0562V26.9663C17.8485 26.8764 17.9384 26.7865 17.9384 26.6966C18.0283 26.427 18.0283 26.1573 18.1182 25.9775C18.1182 25.2584 18.2081 24.809 18.2081 24.4495C18.2081 24.2697 18.2081 24.0899 18.2081 23.8202C18.2081 23.7304 18.1182 23.0112 18.1182 22.5618C18.1182 21.7528 18.2081 20.9438 18.2081 20.4045C18.2081 20.3146 18.2081 20.2247 18.2081 20.1348V20.045H18.2979C18.3878 20.045 18.4777 19.9551 18.4777 19.9551V19.3259L18.1182 19.0562V18.1573C18.1182 17.9775 18.2081 17.8877 18.2081 17.8877C18.2081 17.8877 18.2081 17.7978 18.2081 17.7079C18.2081 17.618 18.2081 17.4382 18.2081 17.4382L18.1182 17.0787V13.8427C18.2081 13.7528 18.2081 13.7528 18.2081 13.7528C18.2081 13.7528 18.2081 13.6629 18.2081 13.573C18.2081 13.4832 18.2081 13.3933 18.2081 13.3933C18.2081 13.3933 18.2081 13.3933 18.1182 13.3034H18.0283C18.0283 13.3034 18.0283 13.3034 17.9384 13.3034C17.9384 13.3034 17.9384 13.3034 17.9384 13.2135L17.8485 13.1236L17.3991 12.6742C17.3092 12.5843 17.3092 12.5843 17.3092 12.5843C17.3092 12.5843 17.2193 12.4944 17.3092 12.4944V12.4045C17.3092 12.3146 17.3092 12.2247 17.3092 12.2247C17.3092 12.2247 17.3092 12.2247 17.3991 12.045H18.1182C18.2081 11.9551 18.3878 11.9551 18.6575 11.9551C18.9272 11.9551 19.1069 11.8652 19.1968 11.8652H19.9159C20.635 11.8652 20.8148 11.7753 21.1744 11.7753C21.3541 11.7753 21.5339 11.7753 21.7137 11.8652C21.8036 12.045 21.9833 12.1348 22.0732 12.2247C22.0732 12.2247 22.0732 12.2247 22.1631 12.2247C22.253 12.2247 22.3429 12.2247 22.5227 12.3146C22.9721 12.5843 23.1519 13.3034 23.1519 13.6629C23.1519 14.0225 23.2418 14.382 23.2418 14.6517C23.2418 14.8315 23.2418 14.9214 23.1519 15.0112L22.7024 15.9101C22.5227 16.2697 22.0732 16.7191 21.9833 16.8989C21.9833 16.8989 22.0732 16.9888 22.1631 16.9888C22.253 17.0787 22.4328 17.0787 22.6126 17.0787C22.7024 17.0787 22.7923 17.1686 22.7923 17.2584C22.7923 17.4382 22.7024 17.618 22.6126 17.618V17.7079L22.7024 17.7978V17.7079C22.8822 17.8877 22.8822 17.9775 22.9721 17.9775C22.9721 17.9775 22.9721 17.9775 23.062 18.0674C23.062 18.0674 22.9721 18.5169 22.9721 18.9663C22.9721 19.1461 22.9721 19.4157 23.062 19.5955C23.062 19.6854 23.3317 19.7753 23.3317 19.9551V20.045C23.3317 20.1348 23.3317 20.2247 23.3317 20.3146C23.3317 20.4045 23.3317 20.4944 23.3317 20.5843C23.3317 20.5843 23.3317 20.5843 23.3317 20.6742C23.3317 21.0337 23.4215 21.4832 23.4215 21.8427C23.4215 22.382 23.3317 22.6517 23.1519 23.0112C23.1519 22.9214 23.1519 22.9214 23.1519 23.0112ZM21.444 14.1124L21.6238 13.9326C21.444 13.8427 21.2642 14.0225 21.0845 13.6629H20.9946L20.4553 13.7528V13.6629C20.4553 13.6629 20.4553 13.6629 20.3654 13.6629C20.3654 13.7528 20.3654 13.7528 20.3654 13.8427C20.3654 13.9326 20.3654 13.9326 20.2755 14.0225V16.4494C20.3654 16.4494 20.3654 16.4494 20.3654 16.4494C20.4553 16.4494 20.4553 16.4494 20.5451 16.4494C20.8148 16.3596 20.7249 15.7303 21.444 15.6405C21.444 15.5506 21.444 15.4607 21.444 15.3708C21.444 15.1011 21.444 14.7416 21.5339 14.5618C21.5339 14.4719 21.444 14.2921 21.444 14.1124ZM21.5339 22.8315C21.5339 22.7416 21.6238 22.6517 21.5339 22.6517C21.5339 22.6517 21.5339 22.5618 21.444 22.5618L21.5339 22.4719C21.5339 22.2921 21.3541 22.0225 21.3541 21.8427C21.3541 21.7528 21.3541 21.573 21.5339 21.573C21.5339 21.3034 21.444 21.2135 21.444 21.2135C21.3541 21.1236 21.3541 21.1236 21.3541 20.8539C21.3541 20.6742 21.444 20.4944 21.444 20.3146C21.444 20.2247 21.444 20.2247 21.444 20.2247C21.444 20.1348 21.444 20.1348 21.444 20.045C21.444 19.8652 21.3541 19.7753 21.3541 19.7753L21.2642 19.6854H21.3541C21.3541 19.6854 21.2642 19.5955 21.2642 19.5056V19.4157C21.2642 19.4157 21.2642 19.4157 21.2642 19.3259C21.2642 19.236 21.0845 19.0562 21.0845 19.0562C20.8148 18.9663 20.5451 18.6966 20.5451 18.6068L20.2755 17.9775C20.2755 18.1573 20.2755 18.427 20.2755 18.6966C20.2755 18.8764 20.2755 19.0562 20.2755 19.236C20.1856 19.3259 20.1856 19.4157 20.1856 19.5056C20.1856 19.7753 20.2755 20.045 20.2755 20.045L20.0957 20.6742C20.0058 20.6742 20.0058 20.7641 20.0058 20.7641C20.0058 20.8539 20.0058 20.8539 20.0957 20.9438V23.3708C20.0058 23.4607 20.0058 23.4607 20.0058 23.5506C20.0058 23.6405 20.0058 23.6405 20.0058 23.6405C20.0058 23.7303 20.0058 24.0899 20.0058 24.6292C20.0058 24.6292 20.0058 24.8989 20.0058 25.0787C20.0058 25.1686 19.9159 25.2584 19.826 25.3483C19.826 25.4382 19.7362 25.4382 19.7362 25.5281C19.826 25.5281 20.0058 25.5281 20.0957 25.4382L20.3654 25.1686C20.5451 25.1686 20.8148 24.7191 20.9946 24.5393C21.1744 24.3596 21.0845 23.9101 21.1744 23.4607V23.3708C21.1744 23.2809 21.2642 23.191 21.2642 23.1011C21.444 23.191 21.5339 23.0112 21.5339 22.8315ZM10.0283 16.8989C10.0283 16.5393 9.48896 16.3596 9.12941 16.6292L5.98334 18.9663C5.80357 19.1461 5.80357 19.3259 5.98334 19.5056L9.12941 21.8427C9.48896 22.1124 10.0283 21.9326 10.0283 21.573V16.8989ZM17.7586 8.71911H22.5227C22.8822 8.71911 23.062 8.17979 22.7923 7.82024L20.4553 4.67417C20.2755 4.49439 20.0957 4.49439 19.9159 4.67417L17.5788 7.82024C17.2193 8.17979 17.3991 8.71911 17.7586 8.71911ZM22.5227 30.1124H17.7586C17.3991 30.1124 17.2193 30.6517 17.489 31.0112L19.826 34.1573C20.0058 34.3371 20.1856 34.3371 20.3654 34.1573L22.7024 31.0112C22.9721 30.6517 22.8822 30.1124 22.5227 30.1124ZM34.5676 18.9663L31.4215 16.6292C31.062 16.3596 30.5227 16.5393 30.5227 16.8989V21.6629C30.5227 22.0225 31.062 22.2023 31.4215 21.9326L34.5676 19.5955C34.7474 19.4157 34.7474 19.1461 34.5676 18.9663Z" fill="url(#paint0_linear_1_672)"/>
<defs>
<linearGradient id="paint0_linear_1_672" x1="20.2796" y1="4.36388" x2="20.2796" y2="33.7727" gradientUnits="userSpaceOnUse">
<stop stop-color="#0D88CD"/>
<stop offset="1" stop-color="#004362"/>
</linearGradient>
</defs>
</svg>
