<svg width="41" height="40" viewBox="0 0 41 40" fill="none" xmlns="http://www.w3.org/2000/svg">
<path d="M25.8064 19.714C25.4054 19.3463 24.807 19.1672 23.9766 19.1672H15.9443V29.4066H18.412V25.7606H23.976C24.807 25.7606 25.4054 25.5821 25.8058 25.2143C26.211 24.8426 26.4159 24.2697 26.4159 23.5126V21.4242C26.4165 20.6616 26.2115 20.0852 25.8064 19.714ZM23.931 23.1058C23.931 23.4546 23.8505 23.5474 23.8415 23.5557C23.8107 23.5858 23.6721 23.6437 23.3623 23.6437H18.4126V21.2657H23.3623C23.6721 21.2657 23.8107 21.3242 23.841 21.3526C23.8505 21.3621 23.931 21.4549 23.931 21.8042V23.1058ZM37.8341 25.3462C37.7915 24.5487 37.599 23.9896 37.2489 23.6414C36.8496 23.2442 36.1844 23.0521 35.2147 23.0521H29.7313V21.3272H35.499V22.3657L37.7358 21.7332V21.2037C37.7358 20.7674 37.5355 20.1408 37.1227 19.7466C36.7151 19.3564 36.0475 19.1667 35.0815 19.1667H30.0695C29.0791 19.1667 28.4068 19.3617 28.0129 19.7655C27.6225 20.1657 27.433 20.8372 27.433 21.8213V22.6359C27.433 23.6202 27.6225 24.2928 28.0129 24.6924C28.4074 25.095 29.0803 25.2912 30.0695 25.2912H35.5346V27.2182H29.4203V26.208L27.0675 26.7501C27.0675 27.7361 27.2618 28.4093 27.6605 28.8102C28.0887 29.2411 28.7267 29.3657 29.3125 29.3965C29.6175 29.4125 29.9226 29.4054 30.2277 29.4054H35.2153C36.198 29.4054 36.868 29.2115 37.2619 28.8125C37.6535 28.4152 37.8436 27.7402 37.8436 26.7501V25.9568C37.8406 25.7197 37.843 25.3438 37.8341 25.3462ZM11.8031 19.1672H5.29496C4.29922 19.1672 3.62216 19.3647 3.22528 19.7702C2.83196 20.1733 2.64062 20.8448 2.64062 21.822V26.7512C2.64062 27.7296 2.83196 28.4011 3.22528 28.803C3.62216 29.2092 4.29922 29.4066 5.29496 29.4066H11.8031C12.7847 29.4066 13.454 29.2132 13.8527 28.8154C14.2472 28.4188 14.4391 27.7432 14.4391 26.7512V21.822C14.4391 20.8366 14.2472 20.1639 13.8533 19.7642C13.4564 19.3617 12.7859 19.1672 11.8031 19.1672ZM11.998 27.2188H5.10008V21.3272H11.998V27.2188Z" fill="#FB0A33"/>
<path d="M7.74504 13.8598C7.79361 13.8268 7.83863 13.7895 7.8801 13.7499C8.08623 13.5466 8.19108 13.2522 8.19108 12.8727V12.2094C8.19108 11.7443 8.0661 11.3943 7.81908 11.1668C7.57444 10.9427 7.20955 10.8333 6.70368 10.8333H1.80729V17.0755H6.3613C6.95958 17.0755 7.40206 16.9691 7.71483 16.7516C7.94703 16.589 8.22366 16.2733 8.22366 15.6893V14.9605C8.22366 14.5663 8.11526 14.2458 7.90261 14.007C7.85462 13.9533 7.8025 13.9042 7.74504 13.8598ZM3.31186 12.1397H6.35064C6.56981 12.1397 6.6326 12.1788 6.6326 12.1788C6.63437 12.1805 6.66518 12.2213 6.66518 12.3655V12.9371C6.66518 13.0678 6.63793 13.1203 6.62786 13.1298C6.62786 13.1298 6.57218 13.1742 6.35064 13.1742H3.31186V12.1397ZM6.71375 15.3488C6.71375 15.6184 6.65689 15.687 6.65037 15.6935C6.63023 15.7159 6.54316 15.7526 6.35064 15.7526H3.31186V14.4593H6.35064C6.58343 14.4593 6.64148 14.5143 6.64741 14.5213C6.65392 14.5284 6.71375 14.5999 6.71375 14.8736V15.3488ZM18.7332 10.8333L15.3046 17.0755H16.8726L17.6054 15.6734H21.156L21.888 17.0755H23.568L20.0802 10.8333H18.7332ZM18.2913 14.4043L19.383 12.3365L20.4789 14.4043H18.2913ZM33.4378 13.8309L38.003 10.8333H35.614L32.3935 13.0335V10.8333H30.8889V17.0755H32.3935V14.7501L35.87 17.0755H38.474L33.4378 13.8309ZM30.1727 12.4518C30.1727 11.8477 30.0566 11.4363 29.8179 11.1951C29.578 10.9516 29.1687 10.8333 28.5657 10.8333H25.3521C24.7497 10.8333 24.3386 10.9522 24.0952 11.1968C23.8523 11.4404 23.7345 11.8513 23.7345 12.4518V15.457C23.7345 16.0582 23.8523 16.4684 24.0952 16.7126C24.3392 16.9567 24.7497 17.0755 25.3521 17.0755H28.5657C29.1681 17.0755 29.578 16.9573 29.8179 16.7143C30.0566 16.4726 30.1727 16.0612 30.1727 15.457L28.6681 15.1438V15.7426H25.2337V12.1503H28.6681V12.7308L30.1727 12.4518ZM10.5054 10.8333H9.00146V17.0755H14.848V15.742H10.5054V10.8333Z" fill="white"/>
</svg>
