<svg width="41" height="40" viewBox="0 0 41 40" fill="none" xmlns="http://www.w3.org/2000/svg">
<path d="M29.2578 27.4375H21.2266V25.2031L29.2578 20.4844V23.5703L27.2344 24.8047C27.2344 24.8047 26.9844 24.9453 27.0781 25.1719C27.1719 25.3984 27.3828 25.4063 27.3828 25.4063H29.2578M38.6953 17.9766V14.8047L34.8906 12.5156H30.5938V13.9063H31.9453C32.3203 13.9063 32.4297 13.9922 32.4297 13.9922L34.0078 14.9141C34.3828 15.125 34.3828 15.3281 34.3828 15.3281V16.9922C34.3828 17.5391 34.0469 17.6797 34.0469 17.6797L30.5859 19.6719V22.8125L38.6953 17.9766ZM29.2891 13.9063V12.5156H24.9766L21.2266 14.7344V16.2188H25.4922V15.2891C25.4922 15.2891 25.5156 15.0156 25.8906 14.8516L27.3672 14.0078C27.3672 14.0078 27.4766 13.9063 27.7422 13.9141H29.2891V13.9063ZM30.5859 27.4375H38.6562V25.4063H30.5859V27.4375Z" fill="#60BA46"/>
<path d="M14.6328 18.3906V27.4297H12.3281V21.6797L8.25781 26.2656V26.2813C8.25781 26.2813 8.05469 26.5234 7.9375 26.5234C7.82031 26.5234 7.61719 26.2813 7.61719 26.2813L3.50781 21.25V27.4297H1.58594V18.3906H3.50781L8.10938 23.8125L12.625 18.3906H14.6328ZM27.6953 18.3906L25.5391 24.1563L23.3828 18.3906H21.2109L19.0547 24.1563L16.8984 18.3906H14.75L17.9844 27.0391L18.1484 27.4844H19.9688L20.1406 27.0391L22.3047 21.25L24.4688 27.0391L24.6328 27.4844H26.4531L26.625 27.0391L29.8516 18.3906H27.6953Z" fill="white"/>
</svg>
