<svg width="41" height="40" viewBox="0 0 41 40" fill="none" xmlns="http://www.w3.org/2000/svg">
<g clip-path="url(#clip0_1_657)">
<path d="M25.5406 8.44001C25.5406 8.44001 25.8206 3.28 24.0206 1.72C24.3406 2.68 23.5806 3.36 23.5806 3.36C23.5806 3.36 23.8606 -0.199996 17.0206 4.39491e-06C19.1006 1.08 19.6606 2.4 19.6606 2.4C19.6606 2.4 17.7806 1.32 15.9406 1.92C14.1006 2.52 13.7806 3.4 12.3406 3.28C14.0206 4.2 15.1406 3.6 15.8606 4.28C16.5806 4.96 17.5406 7.32 17.5406 7.32C17.5406 7.32 16.4206 6.8 14.3806 7C15.3806 7.2 16.6606 8.72 16.8606 9.16C16.0606 8.92 14.1406 8.68001 13.6606 9.64001C14.1406 9.92 14.1806 10.84 14.1406 11.52C14.1006 12.16 14.6606 13.4 15.0206 13.24L25.5406 8.44001Z" fill="#D32F2F"/>
<path d="M34.8206 17.28C34.7806 17.08 34.5406 16.04 33.8206 15.84C33.0206 15.6 32.6206 15.72 32.6206 15.72L30.9006 11.28L31.3406 10L30.1406 4.28001C30.1406 4.28001 28.7406 2.48001 27.8606 1.84001C27.3406 1.48001 26.9006 1.32001 26.4606 1.32001L27.1806 8.44001L22.5006 8.40001C21.5006 8.52001 19.8206 10.52 19.4606 10.84C19.1006 11.16 16.4206 12.4 15.7006 12.6C14.9806 12.8 12.1006 12.68 11.2606 12.64C10.9806 12.64 6.30061 12.08 4.62061 12.04C2.06061 12 -0.0193887 12.52 0.140611 13.04C0.300611 13.6 4.70061 19.08 7.38061 21.04C10.0206 22.96 12.5806 20.84 12.6206 20.8C12.1406 21.28 11.7406 21.84 11.4206 22.44C11.9006 21.96 12.3006 22.56 12.9406 21.72C12.1006 23.64 12.9806 25.8 12.9806 25.8C13.5406 23.4 15.6206 21.88 17.3806 20.12L27.5806 24.2L36.2206 20.8V16.56C35.9006 16.96 35.3806 17.2 34.8206 17.28Z" fill="#F96F00"/>
<path d="M36.2206 16.56C36.2206 16.56 36.0606 18.16 32.9806 20.76C29.9006 23.36 27.3406 22.6 24.7006 22.16C22.1006 21.72 16.9006 18.24 16.9006 18.24C15.7806 17.44 14.6206 17.96 13.9406 18.16C14.3006 18.16 14.8206 18.48 15.1006 18.6C14.0206 18.96 13.2606 20.08 13.2606 20.08L14.4206 19.76C13.5006 21 13.8206 26.16 14.3006 27.64L15.0606 26.08C14.9006 27.64 17.0606 35.84 17.6606 36.8C17.6606 36.8 18.1806 34.64 18.3406 35C18.4606 35.28 19.1806 38.92 19.1806 38.92C19.1806 38.92 19.7006 36.96 19.8206 36.88C19.9406 36.8 20.7406 39.8 20.6206 39.96C21.5806 38.92 23.2206 35.84 23.1806 35.36C23.2606 35.68 23.4606 36.68 23.4606 36.92C23.5806 36.68 25.1406 34.04 25.7806 33.6C26.3406 33.6 30.8206 32.96 30.8606 29.56C30.9006 27.24 31.0206 26.28 31.1806 25.88C31.2606 25.72 31.3406 25.64 31.3806 25.56C36.8606 25.16 37.6206 17.6 37.6206 17.6L36.2206 16.56Z" fill="#F29C33"/>
<path d="M28.1806 25.6L29.6607 27.08L27.7406 30.52L19.1806 29.72L18.9006 26.84C18.5806 26.16 18.3806 25.52 18.1806 24.96C17.7006 23.44 17.5806 22.44 17.5406 21.88C17.5406 21.64 17.6607 21.4 17.9006 21.32L18.0606 21.24C18.0606 21.24 22.2206 24.92 28.1806 25.6Z" fill="#2E0000"/>
<path d="M12.7806 19.56C12.7806 19.56 11.9806 20.68 9.46062 20.28C6.94062 19.88 3.66062 17.4 1.82062 13.32C3.06062 13 4.42062 12.84 5.42062 13.04C6.50062 13.24 14.7006 16.32 14.7006 16.32C13.2606 16 9.54062 16.44 8.94062 16.56C9.50062 16.72 10.9806 17.92 11.7806 18.56C11.1006 18.76 10.7406 18.88 10.1806 19.24C10.9806 19.16 11.7806 19.52 12.7806 19.56Z" fill="#F99574"/>
<path d="M27.6606 17.12C27.5006 17.64 27.0206 18.48 25.6206 18.84C23.3406 19.44 21.7006 18.92 21.2606 18.76C20.8206 18.64 20.2206 18.04 19.9806 16.84C19.7406 15.64 20.0206 11.4 23.3006 11.2C24.6206 11.12 25.7406 11.96 26.2606 13.24C26.7406 14.36 27.2206 15.72 27.5406 16.84C27.6206 16.92 27.6606 17.04 27.6606 17.12ZM31.8606 12.88C31.5406 12.24 30.4606 9.87999 29.6606 9.95999C28.8606 10.04 28.5806 12.24 28.5806 12.24C28.5806 12.24 28.9806 13.84 28.9806 13.88C28.9806 13.88 29.6606 15.44 29.7406 15.52C29.8206 15.6 30.5806 16.48 30.9006 16.56C31.3406 16.64 32.7006 16.44 32.7806 16.32C32.9006 16.24 32.1806 13.52 31.8606 12.88Z" fill="#E8DDE3"/>
<path d="M28.9406 5.55999L27.3007 9.63999L25.8607 8.19999C26.3007 7.15999 27.4606 3.11999 25.5406 1.55999C25.8606 1.43999 26.1407 1.35999 26.4607 1.35999C27.3007 1.51999 28.9406 3.75999 28.9406 5.55999Z" fill="#2E0000"/>
<path d="M26.4206 13.48C26.1406 13.2 25.8206 13.08 25.5406 13.2C24.9406 13.4 24.8206 14.56 25.2606 15.76C25.7006 17 26.5006 17.8 27.1006 17.6C27.3806 17.52 27.5406 17.2 27.6206 16.8C27.3006 15.72 26.9006 14.6 26.4206 13.48ZM30.5406 14.04C30.2606 13.2 29.7006 12.64 29.3406 12.8C29.0606 12.88 28.9406 13.32 29.0206 13.88L29.1006 14.16C29.2206 14.52 29.7006 15.44 29.7406 15.52C29.9406 15.72 30.1806 15.84 30.3406 15.76C30.7406 15.64 30.8206 14.88 30.5406 14.04Z" fill="#2E0000"/>
<path d="M39.3006 11.6C38.5406 11.04 37.0606 11.44 36.5006 12.56C35.9406 13.68 35.4606 17.32 37.3006 17.72C39.0206 17.16 39.9806 15 40.0606 14.4C40.1806 13.8 40.2606 12.28 39.3006 11.6Z" fill="#70101E"/>
<path d="M27.8606 10.44C27.8606 10.44 27.9006 9.12 27.7006 8.64C27.4606 8.16 26.6606 7.12 27.3806 5.92C27.5406 6.28 27.9006 6.36 28.0606 6.32C28.2206 6.24 29.5806 3.76 30.3006 3.84C31.0206 3.92 32.3006 4.84 32.5006 6.36C32.7006 7.88 32.6606 9.96 31.6206 10.68C31.3006 10.44 30.9406 8 30.5806 7.96C30.1806 8.2 28.9406 9.72 28.8206 9.88C28.6206 10.08 27.8606 10.44 27.8606 10.44ZM26.1406 10.8C26.1406 10.8 25.9806 9.92 26.1406 9.6C26.3006 9.28 26.5006 8.88 26.5806 7.96C26.6606 6.48 25.7806 6 25.7806 6C25.7806 6 25.7006 6.56 25.3806 6.44C25.0606 6.32 24.1006 5.04 23.8206 4.88C23.5806 4.72 23.1406 4.28 22.2206 4.28C21.3006 4.28 16.9406 5.68 15.4606 10.48C15.5806 10.72 17.4206 10.2 17.6606 9.76C17.5006 10.28 16.9006 11.8 17.7006 12.56C18.6206 10.96 19.8606 8.44 21.9006 8.52C23.9406 8.6 24.1806 9.84 24.3406 10C24.5006 10.16 25.8206 10.72 26.1406 10.8Z" fill="#70101E"/>
<path d="M19.1806 24.96L19.5806 25.52C19.4606 25.6 19.1006 25.84 18.5806 26.16C18.5406 26.04 18.5006 25.92 18.4206 25.8C18.3006 25.48 18.1806 25.2 18.1006 24.92H18.1406C18.1406 24.92 18.6206 24.72 18.6606 24.72C18.9006 24.76 19.1006 24.84 19.1806 24.96ZM30.3006 25.92C30.6606 25.96 31.2206 25.96 31.6606 25.6C31.2606 25.64 30.7006 25.68 30.4206 25.68C29.4206 25.72 28.1406 25.6 28.1406 25.6C22.1806 24.96 18.0606 21.24 18.0606 21.24C18.0606 21.24 17.6206 22.64 18.7806 23.16C19.1406 23.68 19.7806 24.24 20.5406 24.16C21.2606 24.76 21.7806 25.08 22.7406 24.84C23.8606 25.6 23.8606 26.04 24.0206 26.08C24.1806 26.12 24.9006 26.04 25.3406 25.64C25.7406 25.96 26.8206 26.52 27.8206 26.16C27.8206 26.16 28.1406 26.32 28.6206 26.32C28.5006 26.72 28.1406 29.36 26.2606 29.92C25.1406 30.16 24.0606 29.8 23.1406 29.28C22.9406 29.8 22.5806 30.52 22.1406 31.16C22.3806 31.24 22.6206 31.32 22.7806 31.32C22.9406 32 24.5006 32.04 25.3006 31.92C25.8206 32.48 27.7006 32.04 27.9806 31.52C28.5806 31.56 29.2606 30.68 29.4206 29.96C29.4606 29.96 29.7406 29.68 29.8606 29.28C30.0206 28.72 29.8606 28.24 29.8606 28.24L30.3806 27.4C30.4606 27.32 30.5006 27.2 30.5006 27.08C30.5406 26.92 30.5006 26.72 30.4206 26.6C30.4206 26.6 30.1806 26.08 30.1406 26.08C30.2606 26 30.3006 25.96 30.3006 25.92Z" fill="#E8DDE3"/>
<path d="M23.2606 29.08C22.9806 29.84 22.3806 31 21.6206 31.96C20.5806 33.32 18.1006 34 17.7406 34.08C17.3406 34.16 15.5006 34.16 14.4606 32.32C13.7006 30.96 14.2606 28.64 15.2606 28C16.2606 27.36 18.9406 26.08 19.3406 25.8C19.8606 25.4 19.8206 25.16 20.1406 25.12C20.7006 25.04 21.4606 25.56 21.1806 27.04C21.0606 27.76 19.7006 29.2 19.9006 29.4C20.1406 29.6 21.6206 28.2 21.8206 27.16C21.9006 26.72 22.4606 26.64 22.8206 26.76C23.7406 27.12 23.5406 28.32 23.2606 29.08Z" fill="#D32F2F"/>
</g>
<defs>
<clipPath id="clip0_1_657">
<rect width="40" height="40" fill="white" transform="translate(0.140625)"/>
</clipPath>
</defs>
</svg>
