<svg width="41" height="40" viewBox="0 0 41 40" fill="none" xmlns="http://www.w3.org/2000/svg">
<path d="M35.9904 23.662L38.9575 20.6948L35.9904 17.7277C35.3331 17.8216 34.6571 17.5962 34.1876 17.1268L24.1782 7.0986C23.7087 6.62911 23.4834 5.95306 23.5772 5.29578L20.6101 2.32864L17.643 5.31456C17.7369 5.97184 17.5115 6.64789 17.042 7.11738L7.01386 17.1268C6.54438 17.5962 5.86832 17.8216 5.21105 17.7277L2.24391 20.6948L5.22983 23.662C5.8871 23.5681 6.56316 23.7934 7.03264 24.2629L17.042 34.2723C17.5115 34.7418 17.7369 35.4178 17.643 36.0751L20.6101 39.061L23.5772 36.0939C23.4834 35.4366 23.7087 34.7606 24.1782 34.2911L34.1876 24.2817C34.6758 23.7934 35.3331 23.5681 35.9904 23.662Z" fill="#ED1C24"/>
<path d="M18.8261 23.7183V31.324C18.8261 31.5305 16.5162 32.8826 16.5162 32.8826H24.6664C24.6664 32.8826 22.8636 31.5305 22.8636 31.324C22.8636 31.324 22.8636 23.8498 22.8636 23.5493V22.1221C22.8636 22.0094 23.5585 21.4085 24.2533 20.9202L24.3096 20.8826L24.2533 20.8451C23.5772 20.338 22.8824 19.7559 22.8824 19.6432C22.8824 19.5681 22.9012 17.7465 22.9012 17.7465C22.9012 17.4836 22.9012 10.2911 22.9012 10.2723C22.9012 10.0657 24.6852 8.71362 24.6852 8.71362H16.535C16.535 8.71362 18.8261 10.0657 18.8261 10.2723C18.8261 10.2723 18.8261 17.3709 18.8261 17.5211C18.8261 17.5211 18.8448 19.5493 18.8448 19.6432C18.8448 19.7371 17.4176 20.8639 17.4176 20.8639C17.4176 20.8639 18.8448 21.9906 18.8448 22.1033C18.8448 22.1221 18.8261 23.7183 18.8261 23.7183Z" fill="black"/>
<path d="M32.8918 18.5352C32.8542 18.4413 32.8167 18.3474 32.7603 18.2723C32.7603 18.2723 32.197 16.6385 29.5679 14.4413C28.4599 13.5024 27.2017 12.7512 25.8495 12.2254C24.1218 11.4742 22.0749 11.1737 18.8073 11.1737L9.13593 11.1362H9.00448L9.09837 11.2113C9.11715 11.2301 11.1265 12.6385 11.9153 13.2019C11.9341 14.5352 11.9153 27.7934 11.9153 28.4132L8.96692 30.216L20.4223 30.2348C23.6148 30.2348 25.9247 29.446 27.8777 27.662C29.3425 26.4038 30.3754 24.7136 30.7885 22.8169C30.8636 22.5165 30.9012 22.1972 30.9388 21.878C30.9575 21.5963 30.9763 21.3146 30.9763 21.0329C30.9763 19.324 30.4693 17.6526 29.5115 16.2254V16.2066C29.5303 16.2066 29.5491 16.2254 29.5679 16.2254C29.8495 16.3568 30.1312 16.4883 30.3942 16.6573L30.4505 16.6949C30.6195 16.7888 30.7697 16.9014 30.9388 17.0141C31.6148 17.4836 32.2345 18.0094 32.8167 18.5916L32.9294 18.723L32.8918 18.5352ZM19.3519 28.3005C18.319 28.3005 17.3613 28.3005 16.8542 28.3005H16.5162C16.3096 28.3005 16.2721 28.3005 16.2721 27.9812C16.2721 27.7747 16.2909 14.1972 16.2909 13.446C16.6664 13.3897 20.7228 13.2019 22.6758 14.1221C23.5021 14.4789 24.2533 15.0423 24.8167 15.7371C25.6805 16.7888 26.1125 18.1784 26.1125 19.8686C26.1125 24.6949 24.1594 26.7418 22.3754 27.7371C21.6054 28.1503 20.2721 28.3005 19.3519 28.3005Z" fill="#EDE6CA"/>
</svg>
