<svg width="41" height="40" viewBox="0 0 41 40" fill="none" xmlns="http://www.w3.org/2000/svg">
<path d="M38.8828 19.4219C38.8828 19.4219 34.5234 18.5 32.6797 15.3047C32.6797 15.3047 31.8047 16.8047 30.8906 16.9062C30.8906 16.9062 31.1328 15.1641 32.25 14.3906L30.8906 13.0859H27.7422C27.7422 13.0859 28.5625 10.6641 29.6797 10.4688C29.6797 10.4688 27.7891 9.59375 26.5312 10.6641C26.5312 10.6641 22.4609 11.2422 25.8984 8.04688C25.8984 8.04688 20.9609 6.10938 20.1328 3.97656C19.3125 6.10938 14.3672 8.04688 14.3672 8.04688C17.8047 11.2422 13.7344 10.6641 13.7344 10.6641C12.4766 9.60156 10.5859 10.4688 10.5859 10.4688C11.7031 10.6641 12.5234 13.0859 12.5234 13.0859H9.375L8.03125 14.3828C9.14844 15.2031 9.39062 16.8984 9.39062 16.8984C8.46875 16.75 7.60156 15.2969 7.60156 15.2969C5.8125 18.4922 1.39844 19.4141 1.39844 19.4141C1.39844 19.4141 5.75781 20.3359 7.60156 23.5313C7.60156 23.5313 8.47656 22.0313 9.39062 21.9297C9.39062 21.9297 9.14844 23.6719 8.03125 24.4453L9.39062 25.75H12.5391C12.5391 25.75 11.7188 28.1719 10.6016 28.3672C10.6016 28.3672 12.4922 29.2422 13.75 28.1719C13.75 28.1719 17.8203 27.5938 14.3828 30.7891C14.3828 30.7891 19.3203 32.7266 20.1484 34.8594C20.9688 32.7266 25.9141 30.7891 25.9141 30.7891C22.4766 27.5938 26.5469 28.1719 26.5469 28.1719C27.8047 29.2344 29.6953 28.3672 29.6953 28.3672C28.5781 28.1719 27.7578 25.75 27.7578 25.75H30.9062L32.25 24.4531C31.1328 23.6328 30.8906 21.9375 30.8906 21.9375C31.8125 22.0859 32.6797 23.5391 32.6797 23.5391C34.4766 20.3906 38.8828 19.4688 38.8828 19.4219Z" fill="#490005"/>
<path d="M20.2344 0.820312C20.7188 4.01562 21.0078 7.16406 21.2031 10.3594C21.3984 13.5547 21.4453 16.7031 21.4453 19.8984C21.4453 23.0938 21.3516 26.2422 21.2031 29.4375C21.0078 32.6328 20.7656 35.7812 20.2344 38.9766C19.75 35.7812 19.4609 32.6328 19.2656 29.4375C19.0703 26.2422 19.0234 23.0938 19.0234 19.8984C19.0234 16.7031 19.1172 13.5547 19.2656 10.3594C19.5078 7.16406 19.75 3.96875 20.2344 0.820312Z" fill="#D80000"/>
<path d="M20.2344 0.625C20.7188 3.86719 21.0078 7.07031 21.2031 10.3125C21.3984 13.5547 21.4453 16.7578 21.4453 20C21.4453 23.2422 21.3516 26.4453 21.2031 29.6875C21.0078 32.9297 20.7656 36.1328 20.2344 39.375C19.75 36.1328 19.4609 32.9297 19.2656 29.6875C19.0703 26.4453 19.0234 23.2422 19.0234 20C19.0234 16.7578 19.1172 13.5547 19.2656 10.3125C19.5078 7.07031 19.75 3.86719 20.2344 0.625Z" fill="#F23F00"/>
<path d="M13.6016 4.54688C14.0859 7.11719 14.375 9.67969 14.5703 12.2031C14.7656 14.7734 14.8125 17.3359 14.8125 19.8594C14.8125 22.4297 14.7187 24.9922 14.5703 27.5156C14.375 30.0859 14.1328 32.6484 13.6016 35.1719C13.1172 32.6016 12.8281 30.0391 12.6328 27.5156C12.4844 25 12.3906 22.4297 12.3906 19.9141C12.3906 17.3438 12.4844 14.7812 12.6328 12.2578C12.8281 9.63281 13.1172 7.11719 13.6016 4.54688Z" fill="#F23F00"/>
<path d="M26.5312 4.54688C27.0156 7.11719 27.3047 9.67969 27.5 12.2031C27.6953 14.7734 27.7422 17.3359 27.7422 19.8594C27.7422 22.4297 27.6484 24.9922 27.5 27.5156C27.3047 30.0859 27.0625 32.6484 26.5312 35.1719C26.0469 32.6016 25.7578 30.0391 25.5625 27.5156C25.3672 24.9453 25.3203 22.3828 25.3203 19.8594C25.3203 17.2891 25.4141 14.7266 25.5625 12.2031C25.7578 9.63281 26.0469 7.11719 26.5312 4.54688Z" fill="#F23F00"/>
<path d="M31.2344 15.4922C30.2656 14.8125 29.2031 14.1328 27.9375 13.7969C29.1484 15.4922 30.5547 17.3828 30.3594 20.5312C30.2109 22.9531 29.0547 24.6484 27.7891 26.0078C26.4297 27.4141 24.6875 28.4766 22.7969 28.9609C21.6797 29.3516 20.5703 29.5391 19.4063 29.5937C15.5781 29.5937 11.6094 29.3516 7.92969 29.7891C7.88281 29.4531 7.83594 29.1094 7.73438 28.7734C9.23438 28.3828 11.2734 27.8984 11.4609 26.1562C11.5547 25.1875 11.5547 14.0937 11.3672 13.2734C11.125 12.1562 8.94531 11.8203 7.78125 11.5781C7.78125 11.1875 7.875 10.9453 7.875 10.5625C10.3906 10.2266 12.9141 10.2266 15.625 10.0781C22.6094 9.78125 28.6172 11.1875 31.2344 15.4922ZM16.6016 12.7344C16.2656 12.7812 16.3594 13.8984 16.3594 14.2344C16.4063 17.0469 16.3125 20.3359 16.3125 23.1484C16.3125 24.0234 16.0703 25.9062 16.6016 26.3438C17.1328 26.7812 19.1719 26.6328 19.9922 26.5391C24.2578 26.25 26.1406 21.5469 24.6875 17.4297C23.7656 14.7656 21.6875 12.9219 18.2422 12.6797C17.8125 12.6406 16.7031 12.7344 16.6016 12.7344Z" fill="#E8DCC1"/>
</svg>
