<svg width="41" height="40" viewBox="0 0 41 40" fill="none" xmlns="http://www.w3.org/2000/svg">
<g clip-path="url(#clip0_1_604)">
<path d="M39.4892 3.33617C39.6527 4.16005 39.6402 4.79985 38.7529 5.18677C38.2981 5.38603 38.8011 6.07498 38.1989 6.34841C37.4912 6.671 37.2535 4.90976 37.2535 4.90976C36.6601 5.71844 36.8764 6.21349 37.1284 6.90779C37.2231 7.16872 37.3455 7.5333 36.9166 7.89073C36.6003 8.1588 35.8568 8.4644 35.0928 7.84158C34.688 7.51006 34.3547 6.60398 34.6979 6.25102C35.3314 5.5996 34.8515 4.61488 34.8515 4.61488C34.839 5.29668 34.4602 5.62551 33.9455 5.77653C33.622 5.87125 33.3905 6.19293 33.588 6.98464C33.7855 7.77635 33.781 8.50372 33.2601 8.41436C32.3504 8.26245 32.9187 6.92388 32.4791 6.64419C32.1949 6.46547 31.7857 6.90243 31.489 6.78359C31.1924 6.66474 31.0923 6.36718 31.2308 5.85248C31.3693 5.33778 31.2504 4.5845 30.9859 4.29587C30.4266 3.68556 30.9984 2.93853 31.0226 2.90726C29.9753 3.38621 30.4301 4.0001 30.154 5.13137C29.9056 6.14736 29.2104 5.67376 28.9128 6.90243C28.6153 8.1311 29.0522 7.83354 29.6465 7.96132C30.2407 8.0891 30.221 8.58682 30.2604 9.12297C30.2997 9.65911 30.9145 9.5778 30.9752 10.0335C31.036 10.4892 30.5794 10.9056 30.2032 10.945C29.827 10.9843 29.0344 10.3507 28.9745 9.83604C28.9146 9.32134 28.4124 8.94961 27.7932 8.84774C26.8889 8.69852 26.7647 7.32152 26.7647 7.32152C26.6896 7.8943 26.2285 8.83077 27.1042 9.6609C27.2718 9.80857 27.3837 10.0092 27.4213 10.2294C27.4588 10.4495 27.4198 10.6759 27.3107 10.8708C27.0533 11.306 26.082 10.8109 25.7853 10.5134C25.4887 10.2158 25.0705 10.4151 24.6755 10.8109C24.3243 11.1621 24.1117 10.0746 24.3181 9.54295C24.6755 8.6315 23.4951 7.66018 23.4951 7.66018C23.521 7.86213 24.0312 8.53142 23.0394 9.32491C22.4425 9.80298 23.0197 10.2855 23.0796 11.1567C23.1395 12.028 22.3263 11.5035 22.329 12.3988C22.329 13.203 23.8543 13.7517 23.059 14.3468C22.5756 14.7042 21.6105 14.4228 21.5301 13.6498C21.4729 13.1003 21.1673 12.9153 20.7214 12.5632C19.7948 11.8296 21.4524 9.85927 21.4935 9.81102C19.4141 10.9191 19.2363 11.4346 19.5133 12.8009C19.7046 13.7428 19.0147 14.3298 18.4044 13.8911C18.0711 13.6516 17.8683 13.2477 18.0872 12.5829C18.3222 11.8805 17.8772 10.7957 18.6564 10.0585C19.7457 9.02467 19.1514 7.48325 17.7628 6.82022C16.9497 6.43152 16.9309 5.10545 16.9309 5.10545C15.7818 6.92835 17.1579 7.63874 17.1882 8.57252C17.2481 10.3552 15.8318 10.9968 15.8318 10.9968C15.8318 10.8386 16.535 10.0183 15.8023 9.26594C15.5298 8.98536 15.049 8.71103 15.3627 8.09357C15.7496 7.33224 14.89 6.23851 14.89 6.23851C14.9141 6.94532 15.0875 7.76294 14.3163 8.13735C13.7918 8.39202 14.3163 9.36602 14.0983 9.72256C13.8802 10.0791 13.3771 10.4776 12.7239 10.113C11.959 9.68681 12.4416 8.75124 12.7579 8.30892C13.2628 7.6021 12.5399 6.51105 12.4988 6.45207C12.5104 6.50211 12.6391 7.13655 11.9394 7.68163C11.0226 8.39649 11.2245 9.19356 11.2084 9.51078C11.1924 9.828 10.9582 10.5009 10.5284 10.5277C10.1272 10.5509 9.96994 9.87089 10.5034 9.21411C10.7429 8.91834 10.5034 7.47879 10.5034 7.47879C10.3792 7.88805 10.2675 8.19365 9.70991 8.42062C9.1827 8.6315 9.1273 9.69754 9.1273 9.69754C9.1273 9.69754 9.15768 9.12386 8.64388 8.84238C7.82536 8.3956 8.26947 7.34118 8.28645 7.30633C7.1105 7.77724 7.6806 8.82541 7.46525 9.02646C7.2079 9.26772 6.79239 9.10867 6.31612 8.66903C5.83984 8.22939 5.84609 7.53687 6.15795 7.0043C6.46981 6.47173 7.25705 6.57985 7.74316 6.15272C8.22926 5.72559 8.13901 5.1823 7.82179 4.64705C7.55372 4.20026 8.19888 3.35941 8.19888 3.35941C7.40717 3.33528 6.91749 3.74186 6.85851 4.64883C6.82188 5.25647 6.45105 5.35833 6.02838 5.2931C4.98737 5.13226 5.50743 3.90538 5.50743 3.90538C5.50743 3.90538 4.47356 3.96793 4.50394 5.35565C4.51645 5.92575 4.19566 6.24923 3.46293 6.34663C2.7302 6.44403 2.5488 5.40033 2.90534 4.95444C3.26188 4.50854 3.0644 3.77581 3.0644 3.77581C3.0644 3.77581 2.88568 4.15201 2.31111 4.50854C1.73654 4.86508 1.80177 5.0286 1.70348 5.50399C1.60519 5.97937 1.88934 6.74337 1.44702 6.72818C0.475708 6.69333 1.0467 4.63632 1.0467 4.63632C0.431923 5.21089 -0.443781 6.34216 0.689273 8.21777C1.0753 8.85757 1.5471 9.43304 3.17967 11.4436C3.78998 12.1951 4.5513 12.7491 4.96682 13.0654C5.38233 13.3817 6.98719 15.4227 7.20075 15.7202C7.41432 16.0178 7.98621 16.956 7.72886 17.4716C7.47151 17.9872 7.7235 32.6356 7.60465 33.0717C7.51529 33.4166 6.83796 34.2887 6.24195 35.0643C5.97388 35.4218 5.71385 35.7551 5.53781 36.0098C5.33765 36.2993 5.24025 36.486 5.33944 36.4807C5.71563 36.4601 6.92464 36.7577 7.95493 36.5396C8.16939 36.495 9.5026 36.4771 11.4846 36.4762C11.9313 36.4762 12.4094 36.4762 12.9143 36.4762C20.9931 36.4967 36.074 36.6933 36.4153 36.5271C36.7075 36.3851 36.4439 36.1626 36.1008 35.9454C35.7987 35.756 35.4342 35.571 35.3323 35.4504C35.1143 35.193 33.7587 33.5739 33.2771 33.4398C32.6024 33.2558 33.2663 17.9953 33.2467 17.0651C33.2386 16.7076 33.4638 16.1536 33.6041 15.7569C33.7444 15.3601 36.9318 11.9592 37.4867 11.289C37.8307 10.8708 38.2382 10.5143 38.5661 10.046C38.5683 10.0426 38.5707 10.0393 38.5733 10.0362C38.7902 9.72883 38.9508 9.38545 39.0478 9.02199C39.3007 8.06855 38.66 7.5878 39.8967 5.781C40.6249 4.73194 39.4892 3.33617 39.4892 3.33617ZM18.8905 18.6226C20.8501 18.6226 21.8572 19.1873 22.3567 19.6609C23.4683 20.7144 23.5022 22.8134 23.5237 24.0698C23.5237 24.1708 23.5237 24.2655 23.5291 24.354C23.5541 25.4262 23.3235 27.6262 22.3049 29.0747C21.3827 30.3838 20.6437 30.3838 20.4006 30.3838H18.299C18.299 29.3741 18.2838 19.5939 18.282 18.6261C18.3973 18.6261 18.5304 18.6261 18.6564 18.6261H18.8905V18.6226Z" fill="#FFCB05"/>
<path d="M2.93305 9.23736C2.91607 9.20838 2.91013 9.17425 2.91631 9.14124C2.92249 9.10823 2.94037 9.07856 2.96668 9.05769C2.99299 9.03682 3.02595 9.02615 3.0595 9.02763C3.09305 9.02912 3.12493 9.04267 3.14929 9.06579C4.0795 9.97634 6.00873 11.5615 8.65371 12.1978C12.4684 13.119 16.7415 12.5829 16.7415 12.5829C16.7415 12.5829 17.0265 12.5311 16.8156 12.7366C16.6047 12.9421 15.5521 13.7714 15.1688 14.354C14.7854 14.9366 14.2752 15.4683 14.2752 18.602C14.2752 21.7358 14.2502 30.4544 14.2502 31.0737C14.2502 31.6929 14.2752 33.8848 15.3895 34.6774C16.4618 35.437 17.2195 35.5487 17.2803 35.5558H17.2901C17.3464 35.5683 17.8468 35.6782 17.929 35.8766C17.929 35.8766 18.0184 36.0133 17.6931 36.0133H4.78721C4.7707 36.0136 4.7543 36.0105 4.73896 36.0044C4.68803 35.9865 4.58259 35.9374 4.59152 35.8525C4.60403 35.7408 4.94895 35.6166 5.40914 35.4557C6.14721 35.1859 6.81793 34.759 7.37501 34.2047C8.05591 33.5113 8.20424 33.2888 8.20424 31.8394V17.5485C8.20424 16.8426 8.1551 16.1483 7.61002 15.2449C7.06494 14.3415 6.78078 13.8571 5.4431 12.4453C4.48072 11.4266 3.48349 10.1425 2.93305 9.23736Z" fill="#540000"/>
<path d="M34.0518 15.7998L34.0723 15.7658C34.5817 14.9196 34.8381 14.4943 36.0784 13.1843C37.0819 12.1245 38.1229 10.7957 38.7306 9.79405C38.8834 9.54182 38.939 9.24249 38.887 8.95218C38.8349 8.66187 38.6788 8.40051 38.4478 8.21711C38.2168 8.0337 37.9269 7.94084 37.6323 7.95594C37.3378 7.97103 37.0588 8.09305 36.8478 8.2991C36.0105 9.11762 34.2484 10.5768 31.8438 11.1585C30.4409 11.4963 28.8056 11.667 26.9756 11.667C26.0327 11.6695 25.0905 11.6215 24.1528 11.5231C24.0827 11.5125 24.0119 11.5071 23.941 11.507C23.7126 11.5017 23.488 11.5656 23.2966 11.6904C23.1053 11.8151 22.9561 11.9948 22.8687 12.2058C22.8017 12.372 22.6248 12.9564 23.1886 13.5069C23.2619 13.5783 23.3673 13.6668 23.5067 13.7892C23.7971 14.0394 24.478 14.6265 24.6889 14.9464C24.7166 14.9884 24.7443 15.0295 24.7729 15.0706C25.0687 15.5076 25.4038 16.0035 25.4038 18.6047C25.4038 20.7752 25.4163 25.6765 25.4234 28.6047C25.4234 29.9299 25.4288 30.8869 25.4288 31.0763C25.4288 32.7277 25.0714 33.5694 24.7399 33.8062C23.9705 34.354 23.4227 34.4773 23.3369 34.4943L23.278 34.4987L23.2565 34.5077C22.9521 34.5633 22.6601 34.6728 22.3942 34.8311C19.785 34.6891 17.8575 34.5827 17.5189 34.5112C17.4894 34.505 17.4617 34.5005 17.4295 34.496C17.3973 34.4916 16.8308 34.3861 16.0159 33.8062C15.6826 33.5694 15.3269 32.7277 15.3269 31.0763C15.3269 30.8869 15.3269 29.9299 15.3323 28.6047C15.3394 25.6765 15.352 20.7752 15.352 18.6047C15.352 16.0035 15.687 15.5076 15.9828 15.0706C16.0114 15.0295 16.0391 14.9884 16.0668 14.9464C16.2777 14.6265 17.4965 13.5783 17.5671 13.5069C18.131 12.9564 17.954 12.372 17.887 12.2058C17.7996 11.9948 17.6505 11.8151 17.4591 11.6904C17.2677 11.5656 17.0431 11.5017 16.8147 11.507C16.7438 11.5071 16.673 11.5125 16.603 11.5231C15.6653 11.6217 14.723 11.6697 13.7802 11.667C11.9528 11.667 10.3149 11.4963 8.91196 11.1585C6.50556 10.5804 4.74343 9.12119 3.90794 8.2991C3.68268 8.07692 3.379 7.95237 3.06261 7.95239C2.84745 7.95225 2.63612 8.00936 2.45032 8.11787C2.26451 8.22638 2.11093 8.38237 2.00532 8.56984C1.89972 8.7573 1.8459 8.9695 1.84939 9.18463C1.85288 9.39977 1.91355 9.61011 2.02517 9.79405C2.6328 10.794 3.67382 12.1245 4.6773 13.1825C5.91759 14.4925 6.17404 14.9178 6.68338 15.764L6.70393 15.798C7.11319 16.4762 7.14447 16.9516 7.14447 17.5485V31.8403C7.14447 32.2353 7.13464 32.716 7.05511 32.9269C7.01311 33.0386 6.92018 33.1521 6.62262 33.4541C6.17891 33.8916 5.64702 34.2294 5.06243 34.4451C4.789 34.5407 4.58259 34.6149 4.40476 34.6944C3.87845 34.9294 3.58536 35.2797 3.53531 35.7345C3.47276 36.293 3.81322 36.8068 4.38153 37.0132C4.51441 37.0616 4.65473 37.0864 4.79615 37.0865H36.1222L36.258 37.0499C36.8925 36.881 37.2883 36.3404 37.2204 35.7345C37.1704 35.2797 36.8773 34.9303 36.351 34.6944C36.1723 34.6149 35.9667 34.5407 35.6933 34.4451C35.1087 34.2294 34.5768 33.8916 34.1331 33.4541C33.8356 33.1521 33.7426 33.0386 33.7006 32.9269C33.6211 32.716 33.6113 32.2353 33.6113 31.8403V17.5485C33.6104 16.9516 33.6425 16.4762 34.0518 15.7998ZM17.6994 36.016H4.78721C4.7707 36.0163 4.7543 36.0132 4.73896 36.0071C4.68803 35.9892 4.58258 35.9401 4.59152 35.8552C4.60403 35.7435 4.94895 35.6193 5.40914 35.4584C6.14721 35.1885 6.81793 34.7617 7.37501 34.2074C8.05591 33.514 8.20424 33.2915 8.20424 31.8421V17.5485C8.20424 16.8417 8.1551 16.1483 7.61002 15.2449C7.06494 14.3415 6.78078 13.8571 5.4431 12.4453C4.47714 11.4266 3.47723 10.1425 2.92947 9.23735C2.91663 9.21604 2.90969 9.19169 2.90937 9.16681C2.90904 9.14192 2.91534 9.1174 2.92762 9.09576C2.9399 9.07411 2.95771 9.05612 2.97924 9.04363C3.00076 9.03114 3.02522 9.0246 3.0501 9.02468C3.08615 9.02524 3.12051 9.04002 3.14572 9.06579C4.07593 9.97545 6.00516 11.5615 8.65014 12.1978C10.4149 12.6213 12.2772 12.7339 13.7694 12.7339C14.7621 12.7391 15.7544 12.6887 16.7415 12.5829C16.7633 12.579 16.7854 12.5769 16.8076 12.5766C16.8764 12.5766 16.9559 12.5999 16.8156 12.7366C16.6056 12.9421 15.5521 13.7714 15.1688 14.354C14.7854 14.9366 14.2752 15.4683 14.2752 18.602C14.2752 21.7358 14.2502 30.4544 14.2502 31.0737C14.2502 31.6929 14.2752 33.8848 15.3895 34.6774C16.4618 35.437 17.2195 35.5487 17.2803 35.5558H17.2901C17.3464 35.5683 17.8468 35.6782 17.929 35.8766C17.9281 35.8775 18.0175 36.0142 17.6949 36.0142L17.6994 36.016ZM33.3682 34.2074C33.9253 34.7617 34.596 35.1885 35.3341 35.4584C35.7925 35.6193 36.1383 35.7435 36.1517 35.8552C36.1651 35.9669 35.9783 36.016 35.9783 36.016H28.2445C28.2639 35.8056 28.2243 35.594 28.1301 35.4048C28.0532 35.2449 26.6673 35.1028 24.8909 34.9804C25.0383 34.891 25.1929 34.7936 25.3555 34.6783C26.4698 33.8857 26.4948 31.6938 26.4948 31.0745C26.4948 30.4553 26.4698 21.7358 26.4698 18.6029C26.4698 15.47 25.9623 14.9393 25.5762 14.3549C25.1902 13.7705 24.1394 12.943 23.9294 12.7375C23.7891 12.6008 23.8686 12.5775 23.9374 12.5775C23.9596 12.5778 23.9817 12.5799 24.0035 12.5838C24.9894 12.6903 25.9804 12.7416 26.972 12.7375C28.4643 12.7375 30.3265 12.6231 32.0913 12.2013C34.739 11.5651 36.6655 9.97902 37.5957 9.06936C37.6209 9.04359 37.6553 9.02882 37.6913 9.02826C37.7162 9.02818 37.7407 9.03472 37.7622 9.04721C37.7837 9.0597 37.8015 9.07769 37.8138 9.09933C37.8261 9.12098 37.8324 9.1455 37.8321 9.17038C37.8317 9.19526 37.8248 9.21961 37.812 9.24093C37.2615 10.1461 36.2643 11.4302 35.2983 12.4489C33.958 13.8607 33.6765 14.3441 33.1314 15.2484C32.5863 16.1527 32.5363 16.8453 32.5363 17.5521V31.8403C32.5381 33.2897 32.6873 33.5122 33.3682 34.2074Z" fill="#FFCB05"/>
<path d="M37.8138 9.23736C37.8307 9.20838 37.8367 9.17425 37.8305 9.14124C37.8243 9.10823 37.8064 9.07856 37.7801 9.05769C37.7538 9.03682 37.7209 9.02615 37.6873 9.02763C37.6538 9.02912 37.6219 9.04267 37.5975 9.06579C36.6673 9.97634 34.7381 11.5615 32.0931 12.1978C28.2784 13.119 24.0044 12.5829 24.0044 12.5829C24.0044 12.5829 23.7194 12.5311 23.9303 12.7366C24.1412 12.9421 25.1929 13.7714 25.5771 14.354C25.9614 14.9366 26.4707 15.4683 26.4707 18.602C26.4707 21.7358 26.4957 30.4544 26.4957 31.0737C26.4957 31.6929 26.4707 33.8848 25.3564 34.6774C24.2421 35.47 23.4612 35.5567 23.4612 35.5567C23.4612 35.5567 22.9036 35.6684 22.8169 35.8784C22.8169 35.8784 22.7275 36.0151 23.0528 36.0151H35.9784C35.9784 36.0151 36.1633 35.9651 36.1517 35.8543C36.1401 35.7435 35.7943 35.6184 35.3341 35.4575C34.596 35.1876 33.9253 34.7608 33.3682 34.2065C32.6873 33.5131 32.5381 33.2906 32.5381 31.8412V17.5485C32.5381 16.8426 32.5881 16.1483 33.1332 15.2449C33.6783 14.3415 33.9624 13.8571 35.3001 12.4453C36.2661 11.4266 37.2633 10.1425 37.8138 9.23736Z" fill="#540000"/>
<path d="M26.4698 18.9219C26.3525 18.7214 26.223 18.5284 26.082 18.3438C25.8577 18.0489 25.6263 17.7603 25.3725 17.485C24.285 16.3055 22.7954 15.3851 19.7206 15.3851H13.5639C13.4251 15.3854 13.2921 15.4406 13.1939 15.5388C13.0958 15.6369 13.0405 15.77 13.0403 15.9088V16.2662C13.0398 16.397 13.0885 16.5231 13.1767 16.6196C13.265 16.7161 13.3863 16.7759 13.5165 16.7872C13.7953 16.8122 14.1555 16.9015 14.3279 17.0722C14.3497 17.0927 14.3689 17.1158 14.3851 17.141C14.5996 17.4779 14.6612 17.6173 14.6612 18.5707V30.3784C14.6612 30.3856 14.6934 31.0254 14.2546 31.3739L14.2341 31.39C12.463 32.7187 11.8795 34.7257 11.6892 35.8033C11.6769 35.8733 11.679 35.9451 11.6954 36.0142C11.713 36.0938 11.7495 36.168 11.8018 36.2305C11.8536 36.2923 11.9189 36.3413 11.9927 36.3738C12.0666 36.4062 12.1469 36.4212 12.2275 36.4176C12.308 36.414 12.3867 36.3918 12.4573 36.3528C12.5279 36.3139 12.5886 36.2592 12.6346 36.1929C12.673 36.1384 12.715 36.0777 12.7624 36.0142C13.1368 35.5076 13.7837 34.7561 14.5888 34.3468C14.7023 34.2887 14.8167 34.2378 14.9293 34.1913C15.3139 34.0383 15.7162 33.9341 16.1267 33.8812C16.3098 33.8569 16.4942 33.844 16.6789 33.8428C16.7334 33.8428 16.7683 33.8428 16.7835 33.8428H20.9833C21.8071 33.8428 23.085 33.6847 24.6657 32.3148C24.9357 32.0791 25.184 31.8195 25.4074 31.5392C25.8374 30.9983 26.2002 30.4072 26.4877 29.7788C27.1926 28.2362 27.5582 26.5602 27.56 24.8642C27.5644 22.3648 27.3705 20.4508 26.4698 18.9219ZM17.9281 30.7573C17.9005 30.658 17.8905 30.5545 17.8986 30.4517C17.8986 29.9558 17.8808 18.6646 17.8808 18.5511C17.8775 18.4513 17.8832 18.3514 17.8977 18.2526C18.0166 18.2213 18.3445 18.2213 18.6573 18.2213H18.8914C20.9842 18.2213 22.0815 18.8468 22.6346 19.3696C23.8659 20.5366 23.9035 22.7446 23.9267 24.0635C23.9267 24.1636 23.9267 24.2574 23.9321 24.3459C23.958 25.4664 23.714 27.7728 22.6346 29.307C21.5927 30.7868 20.6955 30.7868 20.4007 30.7868H18.1587C18.0806 30.792 18.0023 30.782 17.9281 30.7573Z" fill="black"/>
<path d="M26.4662 18.1874C26.4457 18.1579 26.4242 18.1293 26.4019 18.098C26.0775 17.6599 25.719 17.2482 25.3296 16.8667C24.2162 15.806 22.6292 14.9812 19.7233 14.9812H13.5666C13.3211 14.9815 13.0858 15.0791 12.9123 15.2526C12.7387 15.4262 12.6411 15.6615 12.6408 15.907V16.2644C12.64 16.4956 12.7261 16.7186 12.882 16.8893C13.0379 17.0599 13.2523 17.1657 13.4826 17.1857C13.8016 17.2143 14.008 17.3108 14.0509 17.3581C14.2171 17.62 14.2618 17.6941 14.2618 18.5734V30.3927V30.4052C14.2618 30.4509 14.2591 30.4966 14.2538 30.542C14.2359 30.6939 14.1769 30.9315 13.9946 31.0683C12.1136 32.4801 11.4926 34.597 11.2951 35.7336C11.2782 35.8262 11.2764 35.921 11.2898 36.0142C11.3104 36.1855 11.3795 36.3473 11.489 36.4807L11.4953 36.4887C11.5826 36.5931 11.6919 36.6769 11.8153 36.7343C11.9387 36.7916 12.0733 36.821 12.2094 36.8204C12.3455 36.8198 12.4798 36.7892 12.6027 36.7308C12.7256 36.6724 12.8341 36.5876 12.9205 36.4824C12.9366 36.4628 12.9527 36.4431 12.967 36.4217C13.0474 36.3055 13.1502 36.1652 13.2708 36.0142C13.6283 35.5674 14.1546 35.0205 14.7738 34.7051C14.9129 34.6344 15.0562 34.572 15.2027 34.5184C15.6752 34.3446 16.1737 34.2521 16.6771 34.2449H16.754H16.8031H20.9851C21.8733 34.2449 23.2485 34.076 24.9302 32.6186C25.0775 32.4909 25.2183 32.3558 25.352 32.2138C25.7941 31.7397 26.1767 31.2133 26.4913 30.6465C27.409 29.022 27.9639 26.931 27.9639 24.8633C27.9666 22.0038 27.7137 19.8816 26.4662 18.1874ZM25.4217 30.8511C25.1337 31.2797 24.7926 31.67 24.4066 32.0128C22.8589 33.3531 21.666 33.4425 20.9877 33.4425H16.7995C16.7879 33.4425 16.7459 33.4425 16.6798 33.4425C16.3769 33.4452 16.0749 33.4751 15.7773 33.5319C15.4185 33.5979 15.0678 33.7018 14.7309 33.8419C14.6237 33.8866 14.5156 33.9357 14.4074 33.9911C13.4361 34.4862 12.6909 35.4101 12.3049 35.966C12.296 35.9792 12.2845 35.9906 12.2712 35.9993C12.2578 36.0081 12.2428 36.0141 12.2271 36.0169H12.2066H12.1833C12.1676 36.0143 12.1526 36.0086 12.1391 36.0001C12.1256 35.9916 12.114 35.9805 12.1049 35.9674C12.0958 35.9543 12.0895 35.9395 12.0862 35.9239C12.0829 35.9083 12.0829 35.8922 12.0859 35.8766C12.2513 34.9383 12.7588 33.1244 14.2788 31.8707C14.3431 31.8171 14.4083 31.7653 14.4763 31.7143C15.125 31.2273 15.0633 30.3552 15.0633 30.3552V18.5698C15.0633 17.5681 14.9945 17.3447 14.7247 16.9194C14.6343 16.7862 14.5112 16.6785 14.3672 16.6066C14.111 16.4798 13.8329 16.4034 13.5478 16.3815C13.5178 16.3786 13.4899 16.3646 13.4696 16.3423C13.4493 16.32 13.438 16.291 13.4379 16.2608V15.9034C13.4379 15.8712 13.4507 15.8403 13.4735 15.8175C13.4963 15.7947 13.5272 15.7819 13.5594 15.7819H19.7162C22.9831 15.7819 24.3574 16.8685 25.3895 18.115C25.5164 18.2687 25.6379 18.4251 25.7576 18.5823C26.0485 18.9622 26.2883 19.3786 26.4707 19.8208C26.9952 21.0781 27.1623 22.6704 27.1623 24.8624C27.1601 26.1769 26.9325 27.4814 26.4895 28.7191C26.2257 29.4723 25.8668 30.1887 25.4217 30.8511ZM22.9098 19.0765C21.6499 17.8827 19.659 17.8183 18.8887 17.8183H18.6546C17.6029 17.8183 17.476 17.8183 17.476 18.5502C17.476 18.5502 17.4939 29.9495 17.4939 30.4508C17.4939 30.9521 17.5832 31.1871 18.1569 31.1871H20.3989C20.8242 31.1871 21.8402 31.129 22.9608 29.5367C24.0813 27.9443 24.3601 25.6049 24.3306 24.3343C24.3011 23.0636 24.3619 20.4544 22.9098 19.0765ZM20.4007 30.3838H18.299C18.299 29.374 18.2838 19.5939 18.282 18.6261C18.3973 18.6261 18.5304 18.6261 18.6564 18.6261H18.8905C20.8501 18.6261 21.8572 19.1909 22.3567 19.6645C23.4683 20.7144 23.5023 22.8134 23.5237 24.0698C23.5237 24.1708 23.5237 24.2655 23.5291 24.3539C23.5541 25.4262 23.3235 27.6262 22.3049 29.0747C21.3827 30.3838 20.6437 30.3838 20.4007 30.3838ZM24.3324 24.3352C24.3029 23.0681 24.3637 20.4544 22.9098 19.0765C21.6499 17.8827 19.659 17.8183 18.8887 17.8183H18.6546C17.6029 17.8183 17.476 17.8183 17.476 18.5502C17.476 18.5502 17.4939 29.9495 17.4939 30.4508C17.4939 30.9521 17.5832 31.1871 18.1569 31.1871H20.3989C20.8242 31.1871 21.8402 31.129 22.9608 29.5367C24.0813 27.9443 24.3619 25.6032 24.3324 24.3352ZM20.4007 30.3838H18.299C18.299 29.374 18.2838 19.5939 18.282 18.6261C18.3973 18.6261 18.5304 18.6261 18.6564 18.6261H18.8905C20.8501 18.6261 21.8572 19.1909 22.3567 19.6645C23.4683 20.7144 23.5023 22.8134 23.5237 24.0698C23.5237 24.1708 23.5237 24.2655 23.5291 24.3539C23.5541 25.4262 23.3235 27.6262 22.3049 29.0747C21.3827 30.3838 20.6437 30.3838 20.4007 30.3838ZM25.4217 30.8511C25.1337 31.2797 24.7926 31.67 24.4066 32.0128C22.8589 33.3531 21.666 33.4425 20.9877 33.4425H16.7995C16.7879 33.4425 16.7459 33.4425 16.6798 33.4425C16.3769 33.4452 16.0749 33.4751 15.7773 33.5319C15.8367 33.638 15.9169 33.731 16.0132 33.8053C16.0516 33.833 16.0901 33.8589 16.1276 33.8839C16.3107 33.8596 16.4951 33.8467 16.6798 33.8455C16.7343 33.8455 16.7692 33.8455 16.7844 33.8455H20.9842C21.808 33.8455 23.0859 33.6873 24.6666 32.3175C24.9366 32.0818 25.1849 31.8222 25.4083 31.5419C25.4154 31.3935 25.419 31.2372 25.419 31.0727C25.4225 31.0325 25.4225 30.9575 25.4217 30.8511ZM18.1587 31.188H20.4007C20.826 31.188 21.842 31.1299 22.9625 29.5376C24.0831 27.9452 24.3619 25.6058 24.3324 24.3352C24.3029 23.0645 24.3637 20.4544 22.9098 19.0765C21.6499 17.8827 19.659 17.8183 18.8887 17.8183H18.6546C17.6029 17.8183 17.476 17.8183 17.476 18.5502C17.476 18.5502 17.4939 29.9495 17.4939 30.4508C17.4939 30.9521 17.5832 31.188 18.1587 31.188ZM18.7574 18.6234H18.8905C20.8501 18.6234 21.8572 19.1882 22.3567 19.6618C23.4683 20.7144 23.5023 22.8134 23.5237 24.0698C23.5237 24.1708 23.5237 24.2655 23.5291 24.3539C23.5541 25.4262 23.3235 27.6262 22.3049 29.0747C21.3827 30.3838 20.6437 30.3838 20.4007 30.3838H18.299C18.299 29.374 18.2838 19.5939 18.282 18.6261C18.3973 18.6261 18.5304 18.6261 18.6564 18.6261L18.7574 18.6234ZM15.0633 18.5698C15.0633 17.5681 14.9945 17.3447 14.7247 16.9194C14.6343 16.7862 14.5112 16.6785 14.3672 16.6066C14.3512 16.7496 14.3369 16.9024 14.3235 17.0668C14.2913 17.494 14.2725 17.9988 14.2725 18.5984C14.2725 20.6054 14.2627 24.9053 14.2546 27.8996V30.39V30.4026C14.2547 30.4482 14.252 30.4939 14.2466 30.5393C14.2466 30.8127 14.2466 30.9977 14.2466 31.0701C14.2466 31.1424 14.2466 31.2488 14.2466 31.3712C14.2466 31.5133 14.2564 31.6813 14.2698 31.8653C14.3342 31.8117 14.3994 31.7599 14.4673 31.709C15.1161 31.222 15.0544 30.3498 15.0544 30.3498L15.0633 18.5698Z" fill="white"/>
</g>
<defs>
<clipPath id="clip0_1_604">
<rect width="40" height="34.173" fill="white" transform="translate(0.140625 2.91351)"/>
</clipPath>
</defs>
</svg>
