<svg width="41" height="40" viewBox="0 0 41 40" fill="none" xmlns="http://www.w3.org/2000/svg">
<path d="M16.3073 12.1667C17.474 12.1667 21.6406 12.1667 25.1406 12.1667C26.6406 12.1667 27.974 12.3333 28.8073 12.3333C29.1406 12.3333 29.1406 12.5 28.974 12.6667C28.8073 12.8333 28.474 13 28.1406 13.3333C27.8073 13.6667 27.974 14.1667 28.1406 14.5C28.3073 15 28.974 17 29.474 18.1667C29.3073 18.3333 29.1406 19.1667 28.974 19.5C28.8073 19.8333 28.6406 21.3333 28.3073 22.3333C27.974 23.3333 27.1406 25 25.8073 26.3333C24.474 27.5 22.6406 28.3333 20.974 28.6667C19.474 29 15.8073 29.1667 14.1406 29.1667C13.974 29.1667 13.974 29.1667 13.8073 29C13.8073 29 13.6406 28.8333 13.474 28.8333C13.3073 28.8333 13.3073 29 13.1406 29.1667C12.8073 29.1667 11.474 29.3333 10.974 29.3333C10.474 29.3333 8.64064 29.3333 8.14064 29.3333C8.3073 29.1667 8.47397 29 9.14064 28.5C9.64064 28 11.8073 27.5 12.474 27.5C12.8073 27.3333 12.8073 27.1667 12.8073 27C12.8073 26.8333 12.8073 26.3333 12.6406 26.1667C12.474 26 12.474 25.5 12.474 25.1667C12.474 24.8333 12.474 22.8333 12.474 22.5C12.474 22.1667 12.6406 22 12.8073 21.8333C12.974 21.6667 12.8073 21.5 12.6406 21.3333C12.474 21.3333 12.474 21.1667 12.474 21C12.474 20.8333 12.474 18.3333 12.474 17.8333C12.474 17.3333 13.3073 16.5 13.8073 16C13.6406 16 13.3073 15.8333 12.974 15.8333C12.6406 15.8333 12.474 15.8333 11.974 15.6667C11.474 15.5 10.1406 14.5 9.3073 14C8.64064 13.5 7.47397 12.6667 7.3073 12.5C7.14064 12.5 6.97397 12.1667 6.97397 12.1667C8.14064 12 14.474 12.1667 16.3073 12.1667ZM15.1406 13.8333C15.474 14.1667 16.474 15.1667 16.8073 15.3333C17.1406 15.5 17.474 16.1667 17.474 16.3333C17.1406 16.3333 16.3073 16.3333 16.1406 16.3333C15.974 16.3333 15.8073 16.3333 15.8073 16.5C15.8073 17 15.974 20 15.974 20.3333C15.974 20.5 15.974 20.6667 16.1406 20.8333C16.3073 21 16.974 21.6667 16.974 21.8333C16.8073 22 16.3073 22.5 16.1406 22.6667C15.974 22.8333 15.974 22.8333 15.974 23.1667C15.974 23.5 15.974 25 15.974 25.1667C15.974 25.5 16.1406 26.5 15.974 26.6667C16.6406 26.6667 18.6406 26.6667 19.6406 26.6667C20.6406 26.6667 21.8073 26.1667 22.6406 25.3333C23.6406 24.3333 23.8073 22.8333 23.974 21.8333C24.1406 21.1667 23.974 20.8333 24.3073 20C24.3073 19.3333 24.3073 18.5 24.3073 18.3333C24.3073 18.1667 24.3073 17.5 24.1406 17.1667C23.974 16.8333 23.974 15.8333 23.3073 15.3333C23.8073 15.3333 23.974 15 24.1406 15C24.3073 14.8333 24.474 14.6667 24.1406 14.6667C23.3073 14.3333 21.1406 14.1667 19.8073 14C18.474 13.8333 15.974 13.8333 15.1406 13.8333Z" fill="#EBE9E8"/>
<path d="M6.64064 8.5L3.47397 7H3.64064C3.64064 7 6.47397 6.83333 6.97397 6.83333C7.47397 6.83333 7.64064 6.83333 7.64064 6.83333L8.14064 7H9.47397H10.1406C10.1406 7 10.474 7 10.6406 7.16667C10.8073 7.16667 12.3073 7.16667 12.3073 7.16667H12.8073H13.474C13.6406 7.16667 13.8073 7.16667 13.8073 7.16667H14.3073H14.974H15.1406C15.1406 7.16667 14.1406 8 13.974 8.16667L13.8073 8.33333L13.3073 8.83333L12.8073 9.66667C12.8073 9.66667 12.8073 9.83333 12.8073 10C12.8073 10 12.8073 10.5 12.8073 11C11.3073 11 9.8073 11 8.64064 11C8.47397 11 8.47397 11 8.3073 11C8.3073 10.8333 8.3073 10.5 8.3073 10.5C8.3073 10.5 8.3073 10.5 8.3073 10.3333L8.14064 9.83333V9.66667L7.47397 8.83333L6.97397 8.5C6.97397 8.5 6.8073 8.5 6.64064 8.5ZM11.474 16.8333C10.8073 16.5 9.3073 15.5 8.64064 15C8.64064 15 8.47397 14.8333 8.3073 14.8333C8.3073 15.3333 8.3073 16 8.3073 16.1667C8.3073 16.3333 8.3073 16.5 8.3073 16.5C8.47397 16.5 8.47397 16.5 8.47397 16.5C8.47397 16.5 8.47397 16.6667 8.47397 16.8333C8.47397 17 8.47397 17 8.47397 17.1667V17.3333C8.47397 17.3333 8.97397 19.1667 8.97397 19.5C8.97397 19.8333 9.3073 21.1667 9.3073 21.1667C9.3073 21.3333 9.64064 24.3333 9.8073 24.8333C9.8073 25 9.97397 26 10.1406 27C10.3073 26.6667 10.8073 26.6667 11.1406 26.5C11.1406 26.1667 10.974 25.8333 10.974 25.3333C10.974 25.1667 10.974 24.3333 10.974 23.3333C10.974 23 10.974 22.6667 10.974 22.5C10.974 22.1667 10.974 21.8333 11.1406 21.6667C10.974 21.5 10.974 21.1667 10.974 21C10.974 20.3333 10.974 18.3333 10.974 17.6667C11.1406 17.5 11.3073 17.1667 11.474 16.8333ZM12.474 30.6667C11.974 30.6667 11.3073 30.6667 10.974 30.6667C10.8073 30.6667 10.8073 30.6667 10.6406 30.6667C10.6406 31.1667 10.6406 31.5 10.8073 31.5C10.8073 31.6667 10.974 33.6667 10.974 33.6667C10.974 33.8333 11.1406 34.1667 11.1406 34.1667C11.1406 34.1667 11.1406 34.5 11.3073 34.6667C11.3073 34.8333 11.3073 35.3333 11.474 35.8333C11.6406 36.3333 11.6406 36.3333 11.6406 36.3333C11.6406 36.3333 12.1406 33.5 12.474 32C12.474 31.5 12.6406 31.1667 12.6406 31.1667C12.6406 31 12.6406 31 12.6406 31V30.8333C12.3073 31 12.474 30.8333 12.474 30.6667ZM15.974 7.66667C15.974 7.83333 16.3073 8 16.3073 8.16667L16.474 8.33333L17.1406 9.16667L18.3073 10.1667C18.3073 10.1667 18.474 10.3333 18.474 10.5C18.474 10.5 18.474 10.6667 18.6406 10.8333C18.6406 10.8333 18.6406 10.8333 18.6406 11C19.474 11 20.474 11 21.474 11C21.8073 11 22.3073 11 22.6406 11C22.6406 11 22.6406 10.8333 22.6406 10.6667C22.6406 10.3333 22.8073 10.3333 22.974 10.1667C23.1406 10 23.3073 9.83333 23.3073 9.83333C23.474 9.66667 23.974 9 23.974 8.83333C23.974 8.83333 24.474 8.16667 24.974 8C25.3073 7.66667 25.6406 7.33333 25.6406 7.33333C25.3073 7.33333 24.974 7.33333 24.974 7.33333C24.974 7.33333 24.8073 7.33333 24.6406 7.33333C24.474 7.33333 24.1406 7.33333 23.974 7.33333C23.8073 7.33333 23.1406 7.5 22.974 7.5C22.6406 7.5 22.1406 7.5 22.1406 7.5C22.1406 7.5 21.974 7.5 21.8073 7.5C21.6406 7.5 21.3073 7.33333 21.3073 7.33333C21.1406 7.33333 20.3073 7.33333 20.1406 7.33333C19.974 7.33333 19.6406 7.33333 19.6406 7.33333H19.474H18.3073L17.974 7.5C17.8073 7.5 17.3073 7.5 17.3073 7.5H17.1406C16.974 7.5 16.8073 7.5 16.8073 7.5H16.3073C16.1406 7.5 15.6406 7.5 15.6406 7.5C15.6406 7.5 15.6406 7.5 15.6406 7.66667C15.6406 7.33333 15.8073 7.5 15.974 7.66667ZM19.974 15.1667C20.1406 15.3333 20.1406 15.3333 19.974 15.1667C20.1406 15.3333 20.1406 15.6667 20.1406 15.8333C20.1406 16 20.3073 16 20.3073 16V16.3333L20.6406 17.5L20.974 19C20.974 19.1667 21.474 20.3333 21.474 20.3333L21.974 22C21.974 22 22.3073 22.5 22.474 23.1667C22.6406 22.6667 22.6406 22.3333 22.8073 21.8333V21.6667C22.8073 21.5 22.8073 21.5 22.8073 21.3333C22.8073 21 22.8073 20.5 23.1406 19.8333C23.1406 19.3333 23.1406 18.8333 23.1406 18.5V18.3333C23.1406 18.1667 23.1406 17.8333 22.974 17.5C22.974 17.3333 22.974 17.3333 22.974 17.1667C22.974 17 22.8073 16.5 22.6406 16.3333L21.474 15.3333H21.8073C21.1406 15.3333 20.6406 15.3333 19.974 15.1667ZM36.8073 3.5L35.474 5.83333C35.474 6 35.474 6 35.3073 6V6.16667C35.3073 6.16667 35.3073 6.16667 35.3073 6.33333C35.3073 6.5 34.3073 8.33333 34.1406 8.66667C33.974 9 32.8073 11.5 32.6406 12C32.474 12.3333 31.474 14.8333 31.1406 15.1667C30.974 15.5 30.6406 16.5 30.3073 17.1667C30.474 17.5 30.474 17.6667 30.6406 18V18.1667L30.8073 18.6667L30.474 19.1667C30.474 19.3333 30.3073 19.8333 30.1406 20C30.1406 20 30.1406 20.1667 30.1406 20.3333C29.974 21 29.8073 22 29.474 22.8333C29.3073 23.3333 28.474 25.6667 26.6406 27.3333C25.974 28 25.3073 28.5 24.6406 28.8333C24.8073 29.5 24.974 30.1667 25.1406 30.3333C25.3073 30.6667 25.8073 32.1667 25.974 32.6667C26.1406 33.1667 26.474 34.3333 26.474 34.3333C26.6406 34.6667 26.6406 35 26.6406 35H26.8073L26.974 34.8333V34.6667L27.1406 34.5C27.1406 34.5 27.474 33.6667 27.474 33.5L27.6406 33.3333L27.974 32.8333L28.1406 32.5L28.3073 32.3333C28.3073 32.3333 28.6406 31.1667 28.6406 31C28.6406 30.6667 29.1406 29.3333 29.1406 29.1667C29.1406 29 29.3073 28.8333 29.3073 28.8333C29.3073 28.8333 29.474 27.8333 29.6406 27.8333V27.6667C29.6406 27.6667 30.3073 26.5 30.474 26.3333C30.6406 26.1667 30.474 26 30.474 26L30.6406 25.8333V25.6667L30.8073 25.5L30.974 25.3333C30.974 25.3333 31.3073 24 31.474 23.8333C31.474 23.6667 31.6406 23.6667 31.6406 23.5C31.6406 23.3333 32.1406 22.1667 32.1406 21.8333C32.3073 21.5 32.6406 20 32.8073 19.6667C32.974 19.3333 33.1406 18.5 33.1406 18.3333C33.1406 18.1667 33.1406 18 33.1406 18C33.1406 18 32.974 17.8333 32.974 17.6667C32.8073 17.5 32.974 17.3333 32.974 17.1667C32.974 17 32.974 17 32.974 17V16.8333L33.1406 16.5L33.3073 15.6667L33.8073 13.8333L33.974 13.1667C33.974 13 33.974 13 33.974 13C33.974 13 33.974 12.8333 33.974 12.6667C33.974 12.5 34.3073 11.6667 34.3073 11.5C34.3073 11.3333 34.474 11.1667 34.474 11C34.474 10.8333 34.6406 10.5 34.8073 10.1667C34.974 9.83333 34.974 9.83333 34.974 9.66667C34.974 9.5 35.1406 9.33333 35.1406 9.33333C35.1406 9.16667 35.1406 9 35.1406 9C35.1406 8.33333 35.1406 8 35.1406 8C35.1406 8 35.3073 7.66667 35.3073 7.5C35.474 7.33333 35.474 7 35.6406 6.83333C35.6406 6.66667 35.8073 6.5 35.8073 6.33333C35.8073 6.16667 35.974 6 35.974 5.83333C35.974 5.66667 36.1406 5.33333 36.1406 5.33333C36.1406 5.16667 36.3073 5 36.3073 5C36.3073 5 36.474 4.83333 36.474 4.66667V4.33333C36.474 4.16667 36.6406 4.16667 36.474 4.16667C36.6406 4.16667 36.8073 3.66667 36.8073 3.5Z" fill="#DD0707"/>
</svg>
