<svg width="41" height="40" viewBox="0 0 41 40" fill="none" xmlns="http://www.w3.org/2000/svg">
<path d="M20.1953 30.8047C26.1626 30.8047 31 25.9673 31 20C31 14.0327 26.1626 9.19531 20.1953 9.19531C14.228 9.19531 9.39062 14.0327 9.39062 20C9.39062 25.9673 14.228 30.8047 20.1953 30.8047Z" fill="#593810"/>
<path d="M31.4141 24.3594L38.7344 20L31.4141 15.6406C31.0469 14.7031 30.5859 13.875 30.0156 13.0469L31.6797 8.42188L27.1016 10.0781C26.3203 9.50781 25.4375 9.03906 24.5078 8.67969L20.1406 1.40625L15.7812 8.72656C14.8438 9.09375 14.0156 9.55469 13.1875 10.125L8.61719 8.46094L10.2812 13.0312C9.71094 13.8125 9.24219 14.6953 8.88281 15.625L1.54688 20L8.86719 24.3594C9.23437 25.2969 9.69531 26.125 10.2656 26.9531L8.60156 31.5781L13.1719 29.9141C13.9531 30.4844 14.8359 30.9531 15.7656 31.3125L20.1406 38.5938L24.5 31.2734C25.4375 30.9062 26.2656 30.4453 27.0938 29.875L31.7188 31.5391L30.0625 26.9609C30.6328 26.1797 31.1016 25.2969 31.4141 24.3594ZM20.1406 30.0234C14.6328 30.0234 10.1172 25.5547 10.1172 20C10.1172 14.4453 14.6328 9.97656 20.1406 9.97656C25.6484 9.97656 30.1641 14.4922 30.1641 20C30.1641 25.5078 25.6484 30.0234 20.1406 30.0234Z" fill="#FF9C00"/>
<path d="M26.8437 19.7422C26.8984 19.2734 26.4766 18.8047 26.4297 18.2891C26.4297 18.0312 26.3281 17.7734 26.2187 17.5078C26.1172 17.25 26.1172 16.9922 26.0625 16.7812H26.0078C26.3203 16.1562 25.4375 15.4297 25.0234 14.9609C24.5078 14.4453 24.2422 13.7656 23.4688 13.5078C23.1016 13.3516 22.7422 13.1406 22.3281 12.9922C21.9609 12.8359 21.5469 12.7344 21.2344 12.625C20.8672 12.4687 20.6094 12.1562 20.1953 12.2109C19.7813 12.2656 19.5703 12.5234 19.1016 12.4219C18.1641 12.1094 17.4922 12.6328 16.7656 13.1484C16.3984 13.4062 16.0391 13.6172 15.7266 13.875C15.625 13.9766 15.5156 14.1328 15.4141 14.2891C15.3125 14.4453 15.1016 14.5469 15 14.7578C14.7891 15.0703 14.4844 15.2734 14.1719 15.4844C14.0156 15.5859 13.9141 15.7969 13.7031 15.8984C13.4453 16.0547 13.3906 16 13.3906 16.3125C13.3906 16.7266 13.6016 17.0391 13.6016 17.4062C13.6016 17.6172 13.6016 17.8203 13.6016 18.0312C13.6562 18.2422 13.7031 18.3984 13.7578 18.6016C13.8594 18.9687 13.7578 19.3828 13.9141 19.6953C14.125 20.0078 14.3281 20.3672 14.5859 20.6328C14.8437 20.9453 15.1016 21.3047 15.3672 21.6719C15.5234 21.8828 16.0937 22.1875 16.0937 22.5C16.5078 22.6016 16.6094 23.0703 16.9766 23.0703C17.1875 23.0156 17.3906 23.0156 17.5469 23.0703C17.7578 23.125 17.9141 23.1719 18.1172 23.2266C18.4844 23.2266 18.7422 22.9141 19.1016 22.8125C19.4687 22.7109 19.8828 22.8125 20.2422 22.6562C20.9141 22.2422 21.3359 21.5156 21.3828 20.7344C21.3828 20.3203 21.2813 19.9062 21.0156 19.5937C20.8047 19.2266 20.9609 18.8125 20.6016 18.6094C20.2344 18.4531 19.8203 18.2969 19.3516 18.2969C18.9375 18.1406 18.5234 18.1953 18.1016 18.3516C17.4297 18.8203 18.9297 19.9062 18.1562 20.2734C17.2734 20.6406 16.8047 19.6484 16.6016 18.9766C16.5 18.5625 16.5 18.0937 16.6016 17.6797C16.6016 17.4687 16.6562 17.3125 16.7031 17.1094C16.8047 16.9531 17.0156 16.8516 17.1719 16.7969C17.4844 16.5859 17.7422 16.2812 18.0547 16.0703C18.3672 15.8594 18.7812 15.7031 19.1484 15.6016C19.6172 15.5 20.0859 15.5 20.5469 15.5C20.7578 15.5 20.9609 15.5547 21.1719 15.5547C21.3828 15.5547 21.5391 15.4531 21.7422 15.4531C22.0547 15.4531 21.9531 15.5547 21.9531 15.8203C21.9531 15.9766 22.0547 16.1328 22.1641 16.2891C22.4219 16.6016 22.6328 16.9141 22.8906 17.2266C23.4062 17.8516 23.3047 18.8359 23.2578 19.6172C23.2031 20.0312 23.2578 20.4453 23.3594 20.8672C23.5156 21.3359 23.1484 21.3359 22.8438 21.5937C22.6328 21.9062 22.4297 22.2187 22.2734 22.5312C22.0156 22.8437 21.7578 23.1016 21.4453 23.3125C21.1875 23.5703 20.875 23.7812 20.6172 23.9844C20.25 24.1953 19.8906 24.3984 19.5234 24.5547C19.1094 24.7109 18.6406 24.8125 18.2266 24.9219C18.0156 24.9766 17.8125 25.0234 17.6016 25.1328C17.4453 25.2344 17.3437 25.4453 17.1328 25.5469C16.6172 25.8594 16.0391 25.8047 15.4687 26.0625C15.1562 26.2187 14.1172 26.2734 14.0703 26.6328H14.0156C14.1719 26.9453 14.4844 27.2031 14.8437 27.2578C15.2109 27.3125 15.5703 27.4141 15.8828 27.5156C16.25 27.6719 16.5547 27.7266 16.9219 27.7734C17.2891 27.7734 17.5938 27.9844 17.9609 28.0312C18.375 28.0859 18.6875 27.7734 19.0547 27.7187C19.4688 27.6641 19.8828 27.6641 20.3047 27.6172C20.7188 27.5625 21.0859 27.4609 21.5 27.3594C21.8672 27.2031 22.2266 27.2031 22.5937 27.0469C22.9609 26.8906 23.2656 26.7344 23.5781 26.5312C23.8906 26.3203 23.9453 25.9609 24.25 25.75C24.5625 25.5391 24.8203 25.3359 25.0781 25.0781C25.2891 24.7656 25.4453 24.4062 25.4922 24.0391C25.6484 23.7266 25.8594 23.4141 26.0625 23.1562C26.2187 22.7891 26.375 22.4297 26.4297 22.0625C26.5859 21.6953 26.5859 21.3359 26.5859 20.9219C26.5312 20.7109 26.3281 20.6094 26.4297 20.3516C26.7344 20.0547 26.7891 19.8984 26.8437 19.7422Z" fill="#39CCFF"/>
</svg>
