<svg width="41" height="40" viewBox="0 0 41 40" fill="none" xmlns="http://www.w3.org/2000/svg">
<path d="M33.1562 27.5625L20.1406 35.125L7.125 27.5625V12.5469L20.1406 4.98438L33.1562 12.5469V27.5625Z" fill="#418AF2"/>
<path d="M20.1406 3.59375L5.57031 11.7656V28.1719L20.1406 36.4062L34.7109 28.1719V11.7656L20.1406 3.59375Z" fill="white"/>
<path d="M8.29689 18.7188C9.24221 10.9297 16.0235 8.82031 16.0235 8.82031C6.96096 18.5 17.8047 25.3906 17.8047 25.3906L10.461 27C10.5156 27.0078 7.90627 23.8906 8.29689 18.7188Z" fill="#36AEEA"/>
<path d="M24.8125 31.0703C17.0234 33.9063 12.4688 28.9531 12.4688 28.9531C25.2031 32.1797 26.0938 19.2734 26.0938 19.2734L30.9844 24.8906C30.9844 24.8906 29.5937 28.8984 24.8125 31.0703Z" fill="#36AEEA"/>
<path d="M31.7656 22.2266C27.875 9.4922 16.9141 15.5547 16.9141 15.5547L19.25 8.15626C19.25 8.15626 23.9219 7.54689 28.1484 11.1563C33.3203 15.6641 31.7656 22.2266 31.7656 22.2266Z" fill="#36AEEA"/>
</svg>
