<svg width="41" height="40" viewBox="0 0 41 40" fill="none" xmlns="http://www.w3.org/2000/svg">
<g clip-path="url(#clip0_1_41)">
<path d="M10.0402 9.901C11.3665 8.57453 12.9412 7.52231 14.6743 6.80443C16.4073 6.08654 18.2648 5.71705 20.1406 5.71705C22.0165 5.71705 23.874 6.08654 25.607 6.80443C27.3401 7.52231 28.9147 8.57453 30.2411 9.901L34.2833 5.85877C32.4262 4.00134 30.2214 2.52793 27.7947 1.52268C25.3681 0.517429 22.7672 3.05176e-05 20.1406 3.05176e-05C17.514 3.05176e-05 14.9132 0.517429 12.4865 1.52268C10.0599 2.52793 7.85507 4.00134 5.99792 5.85877L10.0402 9.901Z" fill="#ED6516"/>
<path d="M35.4525 7.13455L31.3898 11.1972C33.1706 13.4739 34.2191 16.2371 34.3968 19.122C34.5744 22.007 33.873 24.878 32.385 27.356L25.0312 20.0007L21.0255 10.5878H21.0051V23.3108L28.9434 31.2491C26.4302 33.2149 23.3313 34.2828 20.1406 34.2828C16.95 34.2828 13.8511 33.2149 11.3379 31.2491L19.2762 23.3108V10.6361L15.2501 20.0007L7.89483 27.356C6.40764 24.8776 5.70677 22.0067 5.8847 19.1219C6.06264 16.2371 7.11102 13.474 8.8915 11.1972L4.82881 7.13455C2.37856 10.0502 0.811711 13.6048 0.312481 17.3805C-0.186748 21.1561 0.402401 24.9958 2.01066 28.4481C3.61891 31.9004 6.17941 34.8218 9.3911 36.8687C12.6028 38.9156 16.3321 40.003 20.1406 40.003C23.9491 40.003 27.6785 38.9156 30.8902 36.8687C34.1019 34.8218 36.6624 31.9004 38.2706 28.4481C39.8789 24.9958 40.468 21.1561 39.9688 17.3805C39.4696 13.6048 37.9027 10.0502 35.4525 7.13455Z" fill="white"/>
<path d="M34.9001 36.6622H34.7612V36.8726H34.6911V36.3071H34.922C34.9452 36.3057 34.9685 36.3094 34.9902 36.3178C35.0119 36.3262 35.0316 36.3391 35.0479 36.3557C35.0642 36.3723 35.0768 36.3922 35.0848 36.414C35.0928 36.4359 35.0961 36.4592 35.0944 36.4824C35.0975 36.5208 35.087 36.559 35.0649 36.5905C35.0427 36.622 35.0103 36.6448 34.9731 36.6549L35.1017 36.8726H35.0184L34.9001 36.6622ZM34.7612 36.5964H34.9074C34.9348 36.5933 34.9601 36.5801 34.9785 36.5595C34.9969 36.5389 35.0071 36.5122 35.0071 36.4846C35.0071 36.457 34.9969 36.4303 34.9785 36.4097C34.9601 36.3891 34.9348 36.376 34.9074 36.3728H34.7612V36.5964Z" fill="white"/>
<path d="M34.8811 37.1196C34.7767 37.1196 34.6747 37.0886 34.588 37.0307C34.5012 36.9727 34.4336 36.8903 34.3936 36.7939C34.3537 36.6975 34.3433 36.5914 34.3636 36.4891C34.384 36.3868 34.4342 36.2928 34.508 36.219C34.5818 36.1452 34.6758 36.0949 34.7781 36.0746C34.8805 36.0542 34.9865 36.0647 35.0829 36.1046C35.1793 36.1445 35.2617 36.2122 35.3197 36.2989C35.3777 36.3857 35.4086 36.4877 35.4086 36.592C35.4086 36.6613 35.395 36.7299 35.3685 36.7939C35.3419 36.8579 35.3031 36.9161 35.2541 36.9651C35.2051 37.0141 35.1469 37.0529 35.0829 37.0794C35.0189 37.1059 34.9503 37.1196 34.8811 37.1196ZM34.8811 36.1346C34.7906 36.1346 34.7021 36.1614 34.6269 36.2117C34.5517 36.262 34.4931 36.3334 34.4585 36.417C34.4238 36.5006 34.4148 36.5925 34.4324 36.6813C34.4501 36.77 34.4936 36.8515 34.5576 36.9155C34.6216 36.9794 34.7031 37.023 34.7918 37.0406C34.8805 37.0583 34.9725 37.0492 35.0561 37.0146C35.1397 36.98 35.2111 36.9214 35.2614 36.8461C35.3116 36.7709 35.3385 36.6825 35.3385 36.592C35.3389 36.5317 35.3273 36.4719 35.3045 36.4161C35.2817 36.3602 35.248 36.3095 35.2055 36.2667C35.163 36.2239 35.1125 36.1899 35.0568 36.1668C35.0011 36.1436 34.9414 36.1317 34.8811 36.1317V36.1346Z" fill="white"/>
</g>
<defs>
<clipPath id="clip0_1_41">
<rect width="40" height="40" fill="white" transform="translate(0.140625)"/>
</clipPath>
</defs>
</svg>
