<svg width="41" height="40" viewBox="0 0 41 40" fill="none" xmlns="http://www.w3.org/2000/svg">
<path d="M18.7031 5.74219L12.6094 3.33594H12.5L6.1875 4.50781C6.07812 4.50781 6.02344 4.61719 6.02344 4.73437C6.02344 4.78906 6.07812 4.89844 6.13281 4.89844C6.85937 5.23438 7.58594 5.57031 8.3125 5.96094C9.48437 6.57813 11.6094 7.91406 12.0547 8.70312C12.2187 8.98437 12.2812 9.32031 12.2812 9.65625L12.3359 29.8906C12.3359 29.8906 12.3906 32.4609 18.375 36.5391C18.4844 36.5938 18.8203 36.6484 18.875 36.5391C18.875 36.5391 18.875 36.5391 18.875 36.4844V5.91406C18.8125 5.85937 18.8125 5.74219 18.7031 5.74219Z" fill="#3390FF"/>
<path d="M21.5 5.74219L27.5937 3.33594H27.7031L34.0156 4.50781C34.125 4.50781 34.1797 4.61719 34.1797 4.73437C34.1797 4.78906 34.125 4.89844 34.0703 4.89844C33.3437 5.23438 32.6172 5.57031 31.8906 5.96094C30.7187 6.57813 28.5937 7.91406 28.1484 8.70312C27.9844 9.03906 27.9219 9.375 27.9219 9.71094L27.8672 29.9453C27.8672 29.9453 27.8125 32.5156 21.8281 36.5938C21.7187 36.6484 21.3828 36.7031 21.3281 36.5938C21.3281 36.5938 21.3281 36.5938 21.3281 36.5391V5.91406C21.3906 5.85937 21.3906 5.74219 21.5 5.74219Z" fill="#3390FF"/>
<path d="M4.61719 14.1406H14.7344L16.0781 15.3672C16.1328 15.4219 16.1328 15.4219 16.1875 15.4219C16.2422 15.4219 16.2969 15.4219 16.2969 15.3672L19.875 11.4531C19.9297 11.3984 19.9297 11.3437 19.9297 11.2266C19.875 11.1719 19.8203 11.1172 19.7656 11.1172H6.63281C6.07031 11.0625 5.57031 11.2266 5.125 11.5078C4.73438 11.8437 4.39844 12.3984 4.39844 13.4062V13.9062C4.39844 13.9687 4.50781 14.0781 4.61719 14.1406C4.61719 14.0781 4.61719 14.0781 4.61719 14.1406ZM38.2109 11.2891H23.7891L23.6797 11.3437L21.0547 13.8047C21 13.8594 21 14.0312 21.0547 14.0859C21.1094 14.1406 21.1641 14.1406 21.1641 14.1406H32.7344L33.3516 14.9766C33.4062 15.0312 33.5156 15.0859 33.6328 15.0312L38.3281 11.6797C38.3828 11.625 38.4375 11.5156 38.3281 11.3984C38.3203 11.2891 38.2656 11.2891 38.2109 11.2891ZM33.3984 26.6562C33.0078 26.7109 32.6172 26.7656 32.2266 26.7656C28.8203 26.6562 26.0234 24.0234 25.7422 20.6172C25.6875 20.1719 25.6875 19.7266 25.6875 19.2734C25.6875 18.1562 25.7422 16.9844 25.9688 15.8672C25.9688 15.8125 25.9687 15.7578 25.9141 15.7031C25.8594 15.6484 25.8047 15.6484 25.75 15.6484H20.6094C20.5547 15.6484 20.4453 15.7031 20.4453 15.7578C20 17.0469 19.7734 18.4375 19.7734 19.8359C19.7734 20.9531 19.9375 21.5156 20.3359 22.8516C21.3438 25.9219 25.0312 28.8906 27.9922 28.8906C32.4609 28.8906 33.5781 27.3281 33.6328 26.8203C33.625 26.7109 33.5703 26.6562 33.3984 26.6562ZM11.7188 15.8125L11.5547 15.7578H5.74219C5.63281 15.7578 5.57812 15.8672 5.57812 15.9219C5.57812 15.9766 5.57813 16.0312 5.63281 16.0312C5.63281 16.0312 13.5156 25.1406 13.6797 25.3672C13.6797 25.3672 13.6797 25.4219 13.7344 25.4219L13.6797 25.4766H9.03906C8.36719 25.4766 7.69531 25.25 7.14062 24.8594C6.91406 24.6953 6.75 24.4687 6.57812 24.2422C6.52344 24.1875 6.52344 24.1875 6.46875 24.1875C6.41406 24.1875 6.35938 24.1875 6.30469 24.2422L1.9375 28.2734C1.88281 28.3281 1.88281 28.5 1.9375 28.5547C1.99219 28.6094 1.99219 28.6094 2.04687 28.6094H18.3125C19.2656 28.6094 19.875 27.6016 19.9297 26.6562C19.9297 26.2656 19.8203 25.875 19.5938 25.5937C18.875 24.8672 11.7188 15.8125 11.7188 15.8125Z" fill="#CCE1FF"/>
</svg>
