<svg width="41" height="40" viewBox="0 0 41 40" fill="none" xmlns="http://www.w3.org/2000/svg">
<path d="M4.67188 14.1172H14.7734L16.1094 15.3437C16.1641 15.3984 16.1641 15.3984 16.2188 15.3984C16.2734 15.3984 16.3281 15.3984 16.3281 15.3437L19.8984 11.4375C19.9531 11.3828 19.9531 11.3281 19.9531 11.2109C19.8984 11.1562 19.8438 11.1016 19.7891 11.1016H6.67969C6.125 11.0469 5.61719 11.2109 5.17188 11.4922C4.78125 11.8281 4.44531 12.3828 4.44531 13.3906V13.8359C4.45312 14.0078 4.5625 14.1172 4.67188 14.1172ZM38.2109 11.2734H23.8125L23.7031 11.3281L21.0781 13.7812C21.0234 13.8359 21.0234 14.0078 21.0781 14.0625C21.1328 14.1172 21.1875 14.1172 21.1875 14.1172H32.7344L33.3516 14.9531C33.4062 15.0078 33.5156 15.0625 33.6328 15.0078L38.3203 11.6562C38.375 11.6016 38.4297 11.4922 38.3203 11.375C38.3203 11.3281 38.2656 11.2734 38.2109 11.2734ZM33.4062 26.6172C33.0156 26.6719 32.625 26.7266 32.2344 26.7266C28.8281 26.6172 26.0391 23.9922 25.7578 20.5859C25.7031 20.1406 25.7031 19.75 25.7031 19.3047C25.7031 18.1875 25.7578 17.0156 25.9844 15.8984C25.9844 15.8437 25.9844 15.7891 25.9297 15.7344C25.875 15.6797 25.8203 15.6797 25.7656 15.6797H20.6328C20.5781 15.6797 20.4688 15.7344 20.4688 15.7891C20.0234 17.0703 19.7969 18.4687 19.7969 19.8594C19.7969 20.9766 19.9609 21.5312 20.3516 22.875C21.3594 25.9453 25.0391 28.8984 28 28.8984C32.4609 28.8984 33.5781 27.3359 33.6328 26.8359C33.6328 26.7266 33.5781 26.6172 33.4062 26.6172ZM11.7578 15.8516L11.5938 15.7969H5.78906C5.67969 15.7969 5.625 15.9062 5.625 15.9609C5.625 16.0156 5.625 16.0703 5.67969 16.0703C5.67969 16.0703 13.5469 25.1641 13.7188 25.3906C13.7188 25.3906 13.7188 25.4453 13.7734 25.4453L13.7188 25.5H9.08594C8.41406 25.5 7.75 25.2734 7.1875 24.8828C6.96094 24.7187 6.79688 24.4922 6.63281 24.2656C6.52344 24.2656 6.52344 24.2656 6.46875 24.2656C6.41406 24.2656 6.35938 24.2656 6.30469 24.3203L1.9375 28.3437C1.88281 28.3984 1.88281 28.5703 1.9375 28.625C1.99219 28.6797 1.99219 28.6797 2.04687 28.6797H18.2812C19.2266 28.6797 19.8438 27.6719 19.8984 26.7266C19.8984 26.3359 19.7891 25.9453 19.5625 25.6641C18.8984 24.8359 11.7578 15.8516 11.7578 15.8516Z" fill="#CCE1FF"/>
</svg>
