<svg width="41" height="40" viewBox="0 0 41 40" fill="none" xmlns="http://www.w3.org/2000/svg">
<path d="M37.1328 12.0313C37.4844 11.4766 37.1328 10.5156 37.1797 9.85157C37.2812 9.19532 38.3984 7.57032 38.2969 6.91407C37.7422 6.96095 36.8281 7.06251 35.8672 6.91407C34.8516 6.81251 32.3203 7.26564 31.4141 7.67189C30.5 8.07814 31.6172 7.32032 30.9062 7.01564C30.1953 6.76564 27.3125 7.9297 27.3125 7.9297L24.5312 7.72657L20.1797 8.1797L15.7734 7.77345L12.9922 7.97657C12.9922 7.97657 10.1094 6.75782 9.39843 7.06251C8.68749 7.31251 9.85155 8.07814 8.89061 7.71876C7.97655 7.31251 5.4453 6.85939 4.43749 6.96095C3.42968 7.06251 2.56249 7.00782 2.0078 6.96095C1.90624 7.57032 3.0703 9.2422 3.12499 9.89845C3.22655 10.5547 2.8203 11.5156 3.17186 12.0781C3.52343 12.6328 2.92186 12.9375 2.92186 13.5938C2.92186 14.25 4.28905 15.2109 4.14061 15.7734C3.99218 16.2813 3.93749 17.4453 4.14061 18.4063C4.34374 19.3672 4.85155 21.0938 4.6953 21.8984C4.54686 22.6563 4.03905 24.2266 4.14061 24.586C4.24218 24.9375 4.28905 25.2422 4.28905 25.75C4.28905 26.2031 4.79686 27.5234 4.6953 28.1328C4.59374 28.7422 4.84374 29.75 4.74218 30.0547C4.64061 30.3594 4.03124 31.7734 4.59374 31.625C5.10155 31.4766 8.34374 31.375 9.40624 31.375C9.91405 31.375 12.1875 31.625 14.7266 31.625C16.1406 31.625 15.9453 31.5781 17.2109 31.4219C17.6641 31.625 19.7422 31.625 19.9453 31.5703C19.9922 31.5703 20.0937 31.5234 20.1953 31.5234C20.2969 31.5234 20.3437 31.5703 20.4453 31.5703C20.6484 31.6172 22.6719 31.6172 23.1797 31.4219C24.4453 31.5703 24.2422 31.625 25.6641 31.625C28.1953 31.6719 30.4766 31.375 30.9844 31.375C32.1016 31.375 35.2891 31.4219 35.7969 31.625C36.3047 31.7734 35.6953 30.4063 35.6484 30.0547C35.5469 29.75 35.8516 28.7344 35.6953 28.1328C35.5937 27.5234 36.1016 26.211 36.1016 25.75C36.1016 25.2969 36.1484 24.9375 36.25 24.586C36.3516 24.2344 35.7969 22.6641 35.6953 21.8984C35.5469 21.1406 36.0469 19.4141 36.25 18.4063C36.4531 17.4453 36.3984 16.2813 36.25 15.7734C36.1016 15.2656 37.4687 14.2578 37.4687 13.5938C37.4375 12.8906 36.7734 12.5859 37.1328 12.0313Z" fill="#2C2F32"/>
<path d="M9.53125 9.95312H15.6094C15.4609 10.6094 15.4062 11.3203 15.4062 12.0312C15.6562 14.7188 17.4297 22.1563 17.4297 22.1563L20.3125 10.5625L23.1953 21.9062C23.1953 21.9062 24.9687 11.9297 24.9687 11.2734C24.9219 10.7656 24.6641 10.3125 24.2578 10.0078H30.6406C29.7812 10.8203 29.1719 11.7812 28.8203 12.8906C28.2656 15.0703 26.2891 26.1562 26.2891 26.8672C26.3359 27.5781 26.5938 28.2813 27.0469 28.8438H21.125C21.2734 28.3359 21.3281 27.7812 21.3281 27.2266C21.3281 26.2109 20.3672 21.4062 20.3672 21.4062C20.3672 21.4062 19.1484 26.3672 19.1484 27.2813C19.1484 27.8359 19.2969 28.3438 19.5547 28.8516H13.375C13.375 28.8516 14.5391 28.0391 14.4922 27.2344C14.3438 24.9531 11.2031 13.2109 10.9453 12.2969C10.7969 11.375 10.2891 10.5078 9.53125 9.95312Z" fill="#F1BD37"/>
<path d="M11.8125 31.7812C11.8125 31.5781 11.8125 26.2109 11.8125 22.8672C11.8125 22.8672 11.8125 21.6484 11.8125 19.8281C11.2578 17.5469 10.6484 15.3203 10.3438 14.0078C10.1406 13.1484 9.99219 12.6406 9.9375 12.4922V12.4453C9.83594 11.7891 9.42969 11.2266 8.92188 10.8281C8.51562 10.5781 8.36719 10.0703 8.51562 9.60938C8.66406 9.15625 9.07031 8.85156 9.57812 8.85156H11.8594C11.8594 7.6875 11.8594 6.92969 11.8594 6.82812C11.8594 6.375 12.9766 5.3125 13.4297 5.00781V4.6875H13.3281H9.47656H9.42969H9.22656H9.02344H8.97656H5.125H4.97656V4.99219C5.38281 5.29688 6.54687 6.35937 6.54687 6.8125C6.54687 7.01562 6.54687 10.0547 6.54687 13.3984C6.54687 13.3984 6.54687 31.2734 6.54687 31.7812C6.54687 32.2344 5.42969 33.2969 4.97656 33.6016V33.9062H5.07812H8.92969H8.97656H9.17969H9.38281H9.42969H13.2812H13.3828V33.6016C12.9219 33.2969 11.8125 32.2344 11.8125 31.7812Z" fill="#D94020"/>
<path d="M22.6953 31.7812C22.6953 31.6797 22.6953 30.9687 22.6953 29.9609H21.125C20.8203 29.9609 20.5703 29.5547 20.3672 29.3516C20.1641 29.5547 19.8594 29.9609 19.6094 29.9609H17.5313C17.5313 31.0234 17.5313 31.6797 17.5313 31.7812C17.5313 32.2344 16.4141 33.2969 15.9609 33.6016V33.9062H16.0625H19.9141H19.9609H20.1641H20.3672H20.4141H24.2656H24.3672V33.6016C23.8594 33.2969 22.6953 32.2344 22.6953 31.7812Z" fill="#D94020"/>
<path d="M17.4297 6.8125C17.4297 7.01562 17.4297 10.0547 17.4297 13.3984C17.4297 13.3984 17.4297 15.0156 17.4297 17.2969L19.1484 10.2578C19.25 9.75 19.7031 9.44531 20.2109 9.44531C20.7187 9.44531 21.125 9.79688 21.2734 10.2578L22.9922 17.2969C22.9922 13.1953 22.6406 7.07031 22.6406 6.8125C22.6406 6.35937 23.7578 5.29688 24.2109 4.99219V4.6875H24.1094H20.2578H20.2187H20.0156H19.8125H19.7656H15.9141H15.8125V4.99219C16.3203 5.34375 17.4297 6.40625 17.4297 6.8125Z" fill="#D94020"/>
<path d="M33.5859 22.8672C33.5859 22.8672 33.5859 7.32031 33.5859 6.8125C33.5859 6.35937 34.7031 5.29688 35.1563 4.99219V4.6875H35.0547H31.2031H31.1563H30.9531H30.8047H30.7578H26.9063H26.8047V4.99219C27.2109 5.29688 28.375 6.35937 28.375 6.8125C28.375 6.91406 28.375 7.67188 28.375 8.83594H30.6563C31.1094 8.83594 31.5156 9.08594 31.6719 9.54688C31.8203 9.95312 31.7188 10.4609 31.4219 10.7656C30.7109 11.4219 30.2031 12.2344 29.9531 13.1484C29.6484 14.3672 28.9922 17.8594 28.4375 21.0469C28.4375 25.9609 28.4375 31.4766 28.4375 31.7812C28.4375 32.2344 27.3203 33.2969 26.8672 33.6016V33.9062H26.9688H30.8203H31.0234H31.2266H31.2734H35.125H35.2266V33.6016C34.8203 33.2969 33.6563 32.2344 33.6563 31.7812C33.5859 31.5781 33.5859 26.2109 33.5859 22.8672Z" fill="#D94020"/>
</svg>
