<svg width="41" height="40" viewBox="0 0 41 40" fill="none" xmlns="http://www.w3.org/2000/svg">
<path d="M20.1172 33.1641C27.3659 33.1641 33.2422 27.2878 33.2422 20.0391C33.2422 12.7903 27.3659 6.91406 20.1172 6.91406C12.8685 6.91406 6.99219 12.7903 6.99219 20.0391C6.99219 27.2878 12.8685 33.1641 20.1172 33.1641Z" fill="#2B374C"/>
<path d="M36.5469 20.0391C36.5469 16.7344 35.5156 13.4766 33.6719 10.7109V6.69531C33.6719 6.58594 33.5625 6.47656 33.4531 6.47656H29.4375C23.8516 2.625 16.4766 2.625 10.8906 6.47656H6.88281C6.82813 6.47656 6.77344 6.47656 6.71875 6.53125C6.66406 6.58594 6.66406 6.64062 6.66406 6.69531V10.6562C2.75781 16.2969 2.75781 23.7266 6.66406 29.3672V33.3281C6.66406 33.4375 6.77344 33.5469 6.88281 33.5469H10.8984C16.5391 37.3984 23.9141 37.3438 29.5547 33.4922H33.5156C33.625 33.4922 33.7344 33.3828 33.7344 33.2188V29.2578C35.5703 26.6016 36.5469 23.3516 36.5469 20.0391ZM5.90625 20.0391C5.90625 12.1719 12.25 5.82812 20.1172 5.82812C27.9844 5.82812 34.3281 12.1719 34.3281 20.0391C34.3281 27.9062 27.9844 34.25 20.1172 34.25C12.25 34.25 5.90625 27.9062 5.90625 20.0391Z" fill="#F4BF2A"/>
<path d="M10.6797 12.3359H16.0469C15.9375 12.9297 15.8828 13.5313 15.8828 14.1797C16.1016 16.5625 17.6719 23.1797 17.6719 23.1797L20.2188 12.8828L22.8281 22.9687C22.8281 22.9687 24.3984 14.0703 24.3984 13.4766C24.3437 13.0391 24.125 12.6094 23.75 12.3359H29.4453C28.6875 13.0391 28.1406 13.9063 27.8203 14.9375C27.3359 16.8906 25.5937 26.7578 25.5937 27.3594C25.6484 28.0078 25.8672 28.6094 26.2422 29.1484H20.9297C21.0391 28.6641 21.0938 28.1719 21.0938 27.6875C21.0938 26.7656 20.2812 22.4844 20.2812 22.4844C20.2812 22.4844 19.1953 26.9297 19.1953 27.7422C19.1953 28.2266 19.3047 28.7188 19.5234 29.1484H14.1562C14.1562 29.1484 15.1875 28.3906 15.1875 27.6875C15.0781 25.6797 12.2578 15.2109 12.0391 14.3984C11.8672 13.5859 11.3828 12.8281 10.6797 12.3359Z" fill="#F4BF2A"/>
</svg>
