<svg width="41" height="40" viewBox="0 0 41 40" fill="none" xmlns="http://www.w3.org/2000/svg">
<g clip-path="url(#clip0_1_53)">
<path d="M20.1406 31.0478C23.0479 31.0478 25.8898 30.1855 28.3069 28.5699C30.724 26.9544 32.6075 24.6582 33.7193 21.9719C34.8311 19.2856 35.1211 16.3299 34.5526 13.4788C33.9842 10.6276 32.5828 8.00914 30.5259 5.95461C28.4689 3.90008 25.8488 2.50183 22.9969 1.93676C20.1451 1.37169 17.1898 1.66519 14.5048 2.78014C11.8198 3.89508 9.52588 5.78137 7.91319 8.20034C6.30051 10.6193 5.44155 13.4623 5.44499 16.3695C5.4496 20.2641 6.99992 23.9975 9.75539 26.7497C12.5109 29.5019 16.2461 31.0478 20.1406 31.0478Z" fill="#131F31"/>
<path d="M11.0624 37.7174V37.5C11.056 37.4271 11.0353 37.3562 11.0015 37.2913C10.9695 37.2373 10.946 37.1786 10.9319 37.1174L10.8276 36.9348C10.8429 37.0735 10.8429 37.2135 10.8276 37.3522C10.8093 37.4598 10.771 37.5631 10.7145 37.6565L10.6711 37.787V37.8565L10.6189 37.9174C10.6161 37.9434 10.6161 37.9696 10.6189 37.9956C10.6189 37.9956 10.6189 37.9956 10.558 37.9956C10.4971 37.9956 10.5145 38.0478 10.4798 38.0565C10.4507 38.0766 10.4183 38.0913 10.3841 38.1C10.3251 38.1005 10.2675 38.1187 10.2189 38.1522C10.1745 38.1845 10.1243 38.2081 10.0711 38.2217L9.83628 38.2826H9.74063V38.3348C9.66546 38.3271 9.58971 38.3271 9.51454 38.3348C9.4683 38.3397 9.42166 38.3397 9.37541 38.3348H9.14932C9.10707 38.3494 9.06115 38.3494 9.01889 38.3348V38.2565C9.01889 38.2565 9.01889 38.1783 9.01889 38.1435C9.01735 38.1145 9.01735 38.0855 9.01889 38.0565V37.987V37.8478H8.97541H8.91454L8.85367 37.9C8.85367 37.9 8.77541 37.8043 8.85367 37.787C8.93193 37.7696 8.89715 37.787 8.92324 37.787C8.94932 37.787 8.98411 37.8565 9.01019 37.787C9.02542 37.7664 9.04671 37.7512 9.07106 37.7435L9.11454 37.6826C9.11454 37.6826 9.11454 37.4043 9.11454 37.3261C9.11454 37.2478 9.05367 37.1956 9.05367 37.1348C9.05367 37.0739 9.05367 36.9 9.05367 36.7609C9.05367 36.6217 9.05367 36.3 9.05367 36.2391C9.05367 36.1783 9.05367 36.1696 9.11454 36.1261C9.11889 36.0566 9.11889 35.9869 9.11454 35.9174C9.11454 35.9174 9.07106 35.8652 9.11454 35.813C9.1265 35.7763 9.1265 35.7367 9.11454 35.7C9.10683 35.5465 9.10683 35.3927 9.11454 35.2391C9.12772 35.1337 9.18059 35.0373 9.26237 34.9696C9.30319 34.923 9.34997 34.8821 9.4015 34.8478L9.52324 34.787V34.7348L9.6015 34.6739C9.6015 34.6739 9.71454 34.613 9.71454 34.5783C9.59868 34.5723 9.48258 34.5723 9.36672 34.5783C9.27106 34.5783 9.25367 34.6304 9.1928 34.5783C9.10322 34.5683 9.01282 34.5683 8.92324 34.5783H8.86237H8.78411V34.6391H8.74063L8.67976 34.7174V34.787C8.6754 34.7436 8.6754 34.6999 8.67976 34.6565C8.68164 34.6276 8.68164 34.5985 8.67976 34.5696C8.62834 34.5821 8.57466 34.5821 8.52324 34.5696C8.47515 34.5542 8.4235 34.5542 8.37541 34.5696L8.28846 34.6304H7.90585V34.5609H7.6015H7.52324H7.3928C7.3928 34.5609 7.3928 34.5609 7.30585 34.5609C7.25153 34.5479 7.19494 34.5479 7.14063 34.5609L7.25367 34.6478L7.31454 34.7C7.3526 34.7345 7.38752 34.7723 7.41889 34.813V34.8739C7.44038 34.8802 7.46015 34.8913 7.47672 34.9064C7.49329 34.9214 7.50622 34.9401 7.51454 34.9609C7.54373 35.0372 7.56698 35.1157 7.58411 35.1957C7.58411 35.3087 7.58411 35.4217 7.58411 35.4217V35.4913V35.5609C7.58899 35.61 7.58899 35.6595 7.58411 35.7087C7.58774 35.7886 7.60237 35.8676 7.62758 35.9435V36.2652C7.62758 36.3696 7.62758 36.5261 7.62758 36.5261V36.7C7.6385 36.8157 7.6385 36.9321 7.62758 37.0478C7.61997 37.1026 7.61997 37.1582 7.62758 37.213C7.64485 37.2608 7.64485 37.3131 7.62758 37.3609C7.62758 37.3609 7.62758 37.7 7.62758 37.787C7.63649 37.9288 7.63649 38.0712 7.62758 38.213C7.5966 38.3125 7.55582 38.4086 7.50585 38.5L7.33193 38.7348C7.26835 38.7646 7.20729 38.7995 7.14932 38.8391L7.09715 38.9174L6.94932 38.9783C6.94932 38.9783 6.94932 38.9783 7.01019 38.9783H7.22758C7.29127 38.983 7.35521 38.983 7.41889 38.9783H7.47976C7.54333 38.9712 7.60749 38.9712 7.67106 38.9783H7.75802H8.07106C8.25051 38.992 8.43075 38.992 8.61019 38.9783H8.78411C8.78411 38.9783 8.82759 38.9348 8.86237 38.9783C8.89715 39.0217 8.93193 38.9783 8.95802 38.9783C8.98411 38.9783 9.09715 39.0478 9.09715 38.9783C9.09715 38.9087 9.09715 38.8652 9.17541 38.8739H9.24498C9.2998 38.8665 9.35537 38.8665 9.41019 38.8739C9.51727 38.8826 9.62486 38.8826 9.73193 38.8739C9.80684 38.8622 9.88311 38.8622 9.95802 38.8739C9.95802 38.8739 10.0102 38.8217 10.0363 38.8739H10.3319H10.5232C10.5841 38.8739 10.6885 38.9696 10.7319 39.0217C10.7754 39.0739 10.8189 38.8217 10.8711 38.6826C10.9228 38.5333 10.9578 38.3787 10.9754 38.2217L11.0189 38.0217C11.0189 38.0217 11.0189 38.0217 11.0189 37.9C11.0189 37.7783 11.0624 37.7174 11.0624 37.7174ZM17.6537 38.6391C17.6024 38.5774 17.544 38.5219 17.4798 38.4739C17.4175 38.432 17.3667 38.3752 17.3319 38.3087L17.2711 38.1956V38.1L17.2189 38.0478V37.9696L17.1667 37.8478C17.1252 37.6908 17.0729 37.5368 17.0102 37.387C16.9526 37.2838 16.9031 37.1762 16.8624 37.0652C16.8624 37.0652 16.7841 36.8826 16.7667 36.8217C16.7545 36.7804 16.7399 36.7398 16.7232 36.7L16.6624 36.6391H16.6189H16.5406V36.5435L16.6102 36.4652V36.3696L16.558 36.2826C16.496 36.202 16.4435 36.1144 16.4015 36.0217C16.3712 35.9359 16.3364 35.8517 16.2971 35.7696L16.245 35.6043L16.1406 35.2739C16.1069 35.1685 16.0633 35.0666 16.0102 34.9696L15.958 34.8043C15.958 34.8043 15.958 34.6652 15.8972 34.6478H15.8102V34.5609C15.8102 34.5609 15.7058 34.3435 15.6885 34.2913L15.4624 34.5348C15.4189 34.5812 15.3724 34.6248 15.3232 34.6652C15.249 34.6971 15.1789 34.738 15.1145 34.787L14.9928 34.9C14.9928 34.9 14.7493 35.0304 14.7058 35.0652L14.6276 35.1348L14.558 35.213H14.4971C14.4269 35.2667 14.3601 35.3248 14.2972 35.387C14.2972 35.4391 14.1493 35.5087 14.1319 35.5956C14.2085 35.5598 14.2869 35.5279 14.3667 35.5H14.5232H14.5928H14.7493C14.7665 35.4901 14.786 35.4849 14.8058 35.4849C14.8257 35.4849 14.8452 35.4901 14.8624 35.5C14.9319 35.5435 14.9493 35.5 15.0102 35.5C15.0477 35.4949 15.0857 35.4949 15.1232 35.5C15.1497 35.5084 15.1736 35.5234 15.1928 35.5435L15.245 35.6478C15.2283 35.6819 15.2079 35.714 15.1841 35.7435L15.1058 35.8391L15.0624 35.8826C15.0624 35.8826 15.0624 35.8826 15.0015 35.8826C14.9574 35.9063 14.9165 35.9355 14.8798 35.9696L14.8015 36.0565C14.7761 36.0912 14.7556 36.1293 14.7406 36.1696C14.7383 36.2043 14.7383 36.2392 14.7406 36.2739C14.7406 36.2739 14.7406 36.2739 14.6885 36.2739C14.6363 36.2739 14.6885 36.387 14.6102 36.413C14.6167 36.4621 14.6167 36.5118 14.6102 36.5609C14.5906 36.6215 14.5643 36.6799 14.5319 36.7348C14.5319 36.7348 14.4624 36.8217 14.4711 36.8565C14.4734 36.8826 14.4734 36.9087 14.4711 36.9348H14.4102C14.4102 36.9348 14.3406 37.1261 14.3319 37.1609H13.9406H13.8276C13.7817 37.1515 13.7344 37.1515 13.6885 37.1609L13.5232 37.213C13.5232 37.213 13.5232 37.2739 13.6102 37.3174L13.845 37.3783C13.8903 37.4052 13.9406 37.423 13.9928 37.4304C14.0213 37.4227 14.0513 37.4227 14.0798 37.4304L14.0102 37.4739H14.1754L13.9841 37.9609C13.9496 38.0357 13.9058 38.1058 13.8537 38.1696C13.8537 38.1696 13.8537 38.1696 13.7493 38.2565C13.649 38.3663 13.535 38.4627 13.4102 38.5435L13.2798 38.613C13.2324 38.6357 13.193 38.672 13.1667 38.7174L13.1841 38.9783C13.2419 38.9849 13.3002 38.9849 13.358 38.9783H13.5406C13.6099 38.9689 13.6801 38.9689 13.7493 38.9783H13.8971H14.0537C14.1168 38.9911 14.1819 38.9911 14.245 38.9783H14.9232L14.7667 38.8478C14.7117 38.8175 14.6593 38.7826 14.6102 38.7435C14.6102 38.7435 14.5058 38.7435 14.4971 38.6391C14.4881 38.564 14.4881 38.4881 14.4971 38.413V38.3087C14.4846 38.2573 14.4846 38.2036 14.4971 38.1522C14.4971 38.0826 14.4971 37.9435 14.4971 37.9435L14.5493 37.6478L14.6363 37.7087H14.7841C14.865 37.7 14.9467 37.7 15.0276 37.7087C15.1663 37.7231 15.3062 37.7231 15.445 37.7087H15.6363C15.6768 37.7128 15.7175 37.7128 15.758 37.7087H15.9493C16.0711 37.7087 16.0971 37.7087 16.0971 37.7087H16.1754C16.1789 37.755 16.1789 37.8015 16.1754 37.8478C16.1754 37.9348 16.1754 38.013 16.1754 38.1522V38.3696C16.1754 38.3696 16.2189 38.4217 16.1319 38.5174C16.0766 38.5793 16.0271 38.6463 15.9841 38.7174L15.8711 38.8478H15.8102C15.8563 38.8412 15.9032 38.8412 15.9493 38.8478C16.0052 38.8701 16.0674 38.8701 16.1232 38.8478H16.3406C16.4622 38.8378 16.5843 38.8378 16.7058 38.8478H16.9145C16.9978 38.8316 17.0834 38.8316 17.1667 38.8478H17.3406C17.3406 38.8478 17.4624 38.8478 17.5058 38.8478C17.5493 38.8478 17.5928 38.8478 17.5928 38.8478H17.6624H17.8015H18.0102H18.1319C18.0278 38.7535 17.9174 38.6664 17.8015 38.587C17.8189 38.7174 17.6537 38.6391 17.6537 38.6391ZM15.6711 37.0304H15.4971H15.358H15.3058H15.2537H15.1754H15.1058L15.0537 36.9435H14.9928V36.8826H14.9145C14.9583 36.7463 15.0166 36.6151 15.0885 36.4913C15.1522 36.3852 15.2019 36.2712 15.2363 36.1522C15.2595 36.0871 15.2917 36.0257 15.3319 35.9696C15.364 35.9161 15.393 35.861 15.4189 35.8043C15.4189 35.8043 15.5754 36.0478 15.6102 36.1261C15.6235 36.1683 15.641 36.2091 15.6624 36.2478C15.6738 36.3018 15.6913 36.3543 15.7145 36.4043L15.7841 36.5783L15.8711 36.7435L15.9232 36.8826C15.8454 36.9418 15.7607 36.9914 15.6711 37.0304ZM33.3058 34.8217C33.4798 34.7348 33.645 34.6217 33.8189 34.5261V34.4652H33.1841L32.8971 34.5087C32.7841 34.5087 32.6624 34.5087 32.5493 34.5087C32.4363 34.5087 32.1754 34.5087 31.9841 34.5696C31.7928 34.6304 31.7232 34.5696 31.5928 34.5696C31.6598 34.6558 31.7389 34.7319 31.8276 34.7956C31.8858 34.8382 31.9324 34.8948 31.9628 34.9602C31.9932 35.0256 32.0065 35.0976 32.0015 35.1696C32.0015 35.387 32.0972 35.387 32.2102 35.5348C32.1058 35.7174 32.0189 35.3783 32.0189 35.6304C32.0189 35.7348 32.0189 36.1956 32.0189 36.3C32.0189 36.6478 32.0189 36.9956 32.0189 37.3435C32.0189 37.6913 32.0189 37.9261 32.0189 38.213C32.0189 38.5 31.958 38.7435 31.6537 38.9087L31.3928 39.0913C31.651 39.1438 31.9172 39.1438 32.1754 39.0913C32.445 38.9696 32.6798 39.1696 32.9319 39.0913H33.3232C33.5058 39.0913 33.245 39.0043 33.4363 39.0217C33.4363 39.0217 33.5928 39.1087 33.6363 39.1087L33.4363 38.8913C33.3622 38.8172 33.2925 38.7388 33.2276 38.6565C33.1764 38.5977 33.1396 38.5278 33.12 38.4524C33.1004 38.377 33.0985 38.298 33.1145 38.2217C33.1408 38.0546 33.1408 37.8845 33.1145 37.7174C33.1145 37.4304 33.1145 37.1435 33.1145 36.8478C33.1145 36.5522 33.0624 36.1696 33.1145 35.8391C33.1667 35.5087 33.1754 35.3174 33.1928 35.0565C33.1837 35.0104 33.1899 34.9626 33.2102 34.9203C33.2306 34.878 33.2642 34.8434 33.3058 34.8217ZM22.6015 36.7C22.507 36.6157 22.4051 36.5401 22.2971 36.4739L21.9841 36.3696C21.8885 36.3696 21.7928 36.213 21.7058 36.2043C21.7058 36.0304 21.5928 36.1 21.5232 36.1174C21.4537 36.1348 21.5232 36.0652 21.5232 36.0478C21.5232 36.0304 21.2885 35.8739 21.1754 35.8043C21.0564 35.7123 20.9205 35.6444 20.7754 35.6043C20.8033 35.3783 20.9189 35.1722 21.0971 35.0304C21.1754 35.0304 21.2971 34.9696 21.3754 34.9435C21.4537 34.9174 21.6102 34.9435 21.7406 34.9435C21.7406 34.9435 21.8276 34.8652 21.8189 34.9435C21.9521 34.9528 22.0836 34.9791 22.2102 35.0217C22.2645 35.0403 22.3126 35.0734 22.3493 35.1174C22.4092 35.1588 22.4734 35.1938 22.5406 35.2217C22.6602 35.3382 22.7601 35.4733 22.8363 35.6217C22.9133 35.7162 22.9696 35.8258 23.0015 35.9435C23.0015 35.7087 23.0015 35.4565 22.9406 35.2217C22.8798 34.987 22.9406 35.0043 22.8972 34.8913C22.8537 34.7783 22.8972 34.5522 22.8972 34.387C22.6798 34.6217 22.3406 34.5174 22.0798 34.5522C21.8189 34.587 21.4798 34.4913 21.2102 34.5522C21.1406 34.5522 21.0972 34.613 21.045 34.6217C20.9928 34.6304 20.9493 34.6217 20.8972 34.6217C20.7508 34.6609 20.6164 34.7356 20.5058 34.8391C20.2899 34.9898 20.1163 35.1934 20.0015 35.4304C19.9378 35.536 19.8826 35.6465 19.8363 35.7609C19.8259 35.884 19.8055 36.0062 19.7754 36.1261C19.7754 36.1696 19.7058 36.1956 19.6711 36.2304C19.7596 36.2921 19.8605 36.3336 19.9667 36.3522C20.045 36.3522 20.1232 36.4391 20.2015 36.4652C20.2798 36.4913 20.2971 36.4652 20.3493 36.4652C20.3493 36.6565 20.558 36.7522 20.6711 36.8391C20.7408 36.8923 20.8134 36.9416 20.8885 36.987C20.9667 36.987 21.0276 37.1348 21.0971 37.1522C21.1928 37.1522 21.245 37.2478 21.3319 37.2565C21.4189 37.2652 21.5232 37.2565 21.5145 37.4217C21.6624 37.4217 21.7928 37.587 21.9145 37.6478C22.0363 37.7087 22.1928 37.8913 22.3145 37.9087C22.2226 38.1325 22.0725 38.3276 21.8798 38.4739C21.7524 38.5461 21.6088 38.585 21.4624 38.587C21.4624 38.587 21.4102 38.587 21.3928 38.587C21.3754 38.587 21.3319 38.587 21.3145 38.587C21.2971 38.587 21.245 38.587 21.3145 38.7087H21.2624C21.2624 38.7609 21.2624 38.9 21.2189 38.9174V38.613C21.0885 38.613 20.9145 38.613 20.8015 38.4826L20.3841 38.0739C20.3058 37.9956 20.2537 37.9783 20.1928 37.8739C20.1319 37.7696 20.1928 37.787 20.1928 37.7522C20.1928 37.7174 20.1232 37.7522 20.1145 37.7C20.0565 37.5586 20.0213 37.4089 20.0102 37.2565C20.0102 37.4043 19.958 37.5522 19.9406 37.6913C19.9232 37.8304 19.9406 37.9783 19.9406 38.1174C19.9062 38.3886 19.848 38.6563 19.7667 38.9174C19.8537 38.8217 19.8972 38.7087 20.0189 38.6826C20.1406 38.6565 20.2624 38.7609 20.4015 38.7957C20.5406 38.8304 20.8015 39.0043 21.0015 39.0478C21.1199 39.0503 21.2371 39.0709 21.3493 39.1087C21.5232 39.1087 21.6971 39.1087 21.8798 39.1087C22.1209 39.0837 22.3516 38.9968 22.5493 38.8565C22.645 38.7956 22.6885 38.6913 22.7841 38.6304C22.8634 38.5742 22.9313 38.5034 22.9841 38.4217C23.0885 38.2739 23.2276 38.1783 23.2102 37.9435C23.2885 37.9435 23.358 37.7261 23.3841 37.6391C23.4102 37.5522 23.3841 37.5 23.445 37.4391C23.5051 37.3845 23.5814 37.3509 23.6624 37.3435C23.5397 37.2724 23.4233 37.1909 23.3145 37.1C22.9667 36.8652 22.7493 36.813 22.6015 36.7ZM28.3493 36.7C28.245 36.6391 28.158 36.5261 28.045 36.4739L27.7319 36.3696C27.6363 36.3696 27.7319 36.3696 27.6189 36.3696C27.6189 36.2043 27.5145 36.2739 27.445 36.2826C27.3754 36.2913 27.445 36.2391 27.445 36.2217C27.445 36.2043 27.0363 35.9174 26.9319 35.8478C26.8098 35.7555 26.6711 35.6876 26.5232 35.6478C26.5534 35.4204 26.6721 35.2141 26.8537 35.0739C26.9443 35.0385 27.0373 35.0095 27.1319 34.987C27.245 34.987 27.3667 34.987 27.4885 34.987C27.6102 34.987 27.3841 34.8565 27.3841 34.8304C27.3841 34.8043 27.5754 34.9087 27.5667 34.9696C27.7 34.9788 27.8315 35.0051 27.958 35.0478C28.0112 35.0684 28.0589 35.1012 28.0972 35.1435C28.158 35.2043 28.2102 35.2043 28.2798 35.2478C28.3993 35.3642 28.4992 35.4993 28.5754 35.6478C28.6363 35.7435 28.8102 35.8478 28.8363 35.9956C28.8363 35.7609 28.7058 35.4826 28.6798 35.2478C28.6537 35.013 28.6798 35.0304 28.6363 34.9174C28.5928 34.8043 28.6363 34.5783 28.6363 34.413C28.4189 34.6478 28.0885 34.5435 27.8276 34.5783C27.5667 34.613 27.2276 34.5174 26.958 34.5783C26.8885 34.5783 26.8971 34.7 26.845 34.7174C26.7928 34.7348 26.7058 34.6304 26.6537 34.6304C26.5074 34.6696 26.373 34.7443 26.2624 34.8478C26.0464 34.9985 25.8728 35.2021 25.758 35.4391C25.6971 35.5449 25.6448 35.6554 25.6015 35.7696C25.6015 35.8739 25.6015 36.0478 25.5406 36.1348C25.4798 36.2217 25.4711 36.1348 25.4363 36.187C25.5143 36.27 25.6135 36.3301 25.7232 36.3609C25.8015 36.3609 26.1406 36.6391 26.2102 36.6565C26.2798 36.6739 26.3058 36.6565 26.358 36.6565C26.358 36.8478 26.358 36.7522 26.4276 36.8391C26.4973 36.8923 26.5699 36.9416 26.645 36.987C26.7145 36.987 26.7754 37.1348 26.8537 37.1522C26.9319 37.1696 26.7319 36.8913 26.7406 36.8739C26.7493 36.8565 27.0015 37.2043 27.0885 37.213C27.1754 37.2217 27.2711 37.213 27.2711 37.3783C27.4102 37.3783 27.5406 37.5435 27.6624 37.6043C27.7841 37.6652 27.9406 37.8478 28.0624 37.8652C27.9645 38.0856 27.8155 38.2794 27.6276 38.4304C27.5002 38.5027 27.3566 38.5415 27.2102 38.5435H27.1406H27.0624C27.0189 38.5435 26.9319 38.6391 26.9319 38.5435C26.9319 38.4478 26.6363 38.5435 26.5232 38.413L26.1058 38.0043C26.0276 37.9261 25.958 38.0043 25.9058 37.9087C25.8537 37.813 25.9058 37.8217 25.9058 37.787C25.9058 37.7522 25.8624 37.6565 25.845 37.6304C25.7909 37.4878 25.7558 37.3387 25.7406 37.187C25.7295 37.333 25.7092 37.4782 25.6798 37.6217C25.6798 37.7609 25.6798 37.9087 25.6798 38.0478C25.6524 38.3195 25.5971 38.5876 25.5145 38.8478C25.6015 38.7522 25.645 38.6391 25.7667 38.613C25.8885 38.587 26.0102 38.6913 26.1406 38.7261C26.2711 38.7609 26.5406 38.9348 26.7406 38.9783C26.8625 38.9876 26.9825 39.014 27.0971 39.0565C27.2711 39.0565 27.4276 38.987 27.6102 38.987C27.8487 38.962 28.0766 38.8751 28.2711 38.7348C28.3667 38.6739 28.4102 38.5696 28.5058 38.5087C28.5873 38.455 28.6556 38.3836 28.7058 38.3C28.8102 38.1522 28.9493 38.0565 28.9319 37.8217C29.0102 37.8217 29.0711 37.6043 29.1058 37.5174C29.1406 37.4304 29.1058 37.5174 29.1667 37.4652C29.2276 37.413 29.3232 37.2217 29.3754 37.2217C29.2555 37.1465 29.1394 37.0652 29.0276 36.9783C28.7058 36.8652 28.5232 36.813 28.3493 36.7ZM4.53193 38.0478C4.44178 38.1387 4.34273 38.2202 4.23628 38.2913C4.18127 38.3383 4.11559 38.3712 4.04498 38.387C4.04498 38.387 3.96672 38.387 3.92324 38.387C3.87976 38.387 3.92324 38.4478 3.92324 38.4826H3.75802H3.48845H3.37541H3.26237C3.03802 38.4673 2.82186 38.3922 2.63628 38.2652C2.53193 38.2043 2.46237 38.0739 2.36672 38.0217C2.27106 37.9696 2.22759 38.0217 2.16672 37.9696C2.10585 37.9174 2.16672 37.9 2.12324 37.8826C1.93193 37.6391 1.69715 37.4913 1.61019 37.1435C1.58539 36.8765 1.51787 36.6152 1.41019 36.3696C1.46749 36.2808 1.51144 36.1841 1.54063 36.0826C1.58761 35.9962 1.64295 35.9147 1.70585 35.8391C1.85989 35.6296 2.05898 35.4572 2.28845 35.3348C2.47155 35.2169 2.67071 35.1261 2.87976 35.0652H2.9928C2.9928 35.0652 2.9928 35.013 3.09715 35.0043C3.2015 34.9956 3.33193 35.0043 3.45367 35.0043C3.57541 35.0043 3.45367 35.0652 3.45367 35.1C3.45367 35.1348 3.53193 35.1 3.57541 35.1C3.64509 35.1226 3.70996 35.158 3.76672 35.2043C3.87518 35.2727 3.97453 35.3545 4.06237 35.4478C4.15802 35.5522 4.21019 35.6826 4.29715 35.787C4.38411 35.8913 4.47106 35.9 4.54063 35.9956C4.48845 35.6826 4.4015 35.3609 4.36672 35.0478C4.33141 34.8822 4.27593 34.7216 4.2015 34.5696C4.2015 34.4826 4.10585 34.1087 4.03628 34.0565C3.90585 34.2913 3.88845 34.4826 3.66237 34.4826C3.43628 34.4826 3.23628 34.413 3.01889 34.4217C2.8015 34.4304 2.63628 34.3783 2.42759 34.4217C2.33915 34.4426 2.25204 34.4687 2.16672 34.5C2.10585 34.5 2.0015 34.5 1.96672 34.5C1.77541 34.5 1.61019 34.7435 1.42759 34.8217C1.42759 34.9174 1.42759 35.0217 1.57541 35.0478C1.57541 35.0478 1.27106 34.9435 1.23628 34.9522C1.2015 34.9609 1.16672 35.0043 1.14063 35.0217C0.999738 35.1576 0.887395 35.3202 0.810194 35.5C0.776715 35.5547 0.735737 35.6045 0.688455 35.6478C0.62445 35.7392 0.580041 35.8428 0.55802 35.9522C0.479759 36.1522 0.288455 36.213 0.15802 36.3696C0.247538 36.4898 0.326112 36.6179 0.392803 36.7522C0.392803 36.8565 0.488455 36.9435 0.523237 37.0565C0.532586 37.1637 0.565231 37.2676 0.61889 37.3609C0.683065 37.4649 0.735557 37.5757 0.775411 37.6913C0.844977 37.8478 0.914542 38.0043 0.992803 38.1522C1.05744 38.2716 1.15372 38.3708 1.27106 38.4391C1.44616 38.5853 1.63552 38.7135 1.83628 38.8217C1.91454 39.0391 2.27106 39.1261 2.43628 39.1087C2.6015 39.0913 2.86237 39.1087 3.07976 39.1087C3.29715 39.1087 3.33193 39.0565 3.47106 39.0478H3.74063C3.82737 39.0565 3.91476 39.0565 4.0015 39.0478C4.08616 39.0393 4.16862 39.0158 4.24498 38.9783C4.38411 38.9783 4.43628 39.0565 4.54063 39.2478C4.61019 39.1957 4.63628 38.9783 4.67106 38.8826V38.8043C4.72837 38.6888 4.76934 38.5659 4.7928 38.4391C4.7928 38.1174 4.91454 37.7956 4.95802 37.4826C4.89715 37.5783 4.8015 37.6043 4.72324 37.6913C4.64498 37.7783 4.62759 37.9348 4.53193 38.0478ZM39.9058 37.9174C39.8189 38.0217 39.7667 37.9174 39.6711 38.0565C39.5828 38.1494 39.4835 38.2312 39.3754 38.3C39.3203 38.3419 39.2586 38.3742 39.1928 38.3957C39.1928 38.3957 39.1145 38.3957 39.0711 38.3957C39.0276 38.3957 39.0711 38.4565 39.0711 38.4913C39.0163 38.4828 38.9606 38.4828 38.9058 38.4913H38.645H38.5319H38.4015C38.1804 38.4733 37.9677 38.3984 37.7841 38.2739C37.6798 38.213 37.6189 38.0826 37.5232 38.0304C37.4276 37.9783 37.3841 38.0304 37.3232 37.9783C37.2624 37.9261 37.3232 37.9087 37.2798 37.8913C37.0524 37.6892 36.8765 37.4358 36.7667 37.1522C36.7412 36.9003 36.6766 36.6538 36.5754 36.4217C36.6292 36.3311 36.673 36.2349 36.7058 36.1348C36.7529 36.0505 36.8052 35.9691 36.8624 35.8913C37.0183 35.6868 37.2134 35.5153 37.4363 35.387C37.6224 35.269 37.8245 35.1782 38.0363 35.1174H38.1406C38.1406 35.1174 38.1406 35.0739 38.245 35.0652C38.3493 35.0565 38.6624 35.0652 38.7841 35.0652C38.9058 35.0652 38.6102 35.1174 38.6102 35.1522C38.6102 35.187 38.6885 35.1522 38.7406 35.1522C38.8067 35.1768 38.8684 35.2121 38.9232 35.2565C39.0482 35.324 39.1649 35.4057 39.2711 35.5C39.3667 35.613 39.4102 35.7435 39.5058 35.8478C39.6015 35.9522 39.6798 35.9609 39.7406 36.0565C39.6885 35.7435 39.6015 35.4217 39.5667 35.1087C39.5357 34.9459 39.483 34.788 39.4102 34.6391C39.4102 34.5435 39.3406 34.3261 39.2711 34.2739C39.1493 34.5 39.0971 34.5435 38.8711 34.5435C38.645 34.5435 38.4537 34.4739 38.2363 34.4913C38.0189 34.5087 37.8624 34.4913 37.645 34.4913C37.5584 34.5124 37.474 34.5415 37.3928 34.5783C37.3262 34.5728 37.2594 34.5728 37.1928 34.5783C37.0015 34.5783 36.8363 34.813 36.6624 34.8913C36.6624 34.987 36.5058 35.013 36.4711 35.0217C36.4363 35.0304 36.4015 35.0739 36.3841 35.0913C36.2102 35.213 36.2015 35.6826 36.0885 35.8652C35.9754 36.0478 36.0885 35.387 36.0885 35.4391C35.9796 35.6209 35.8893 35.8132 35.8189 36.013C35.7533 36.2099 35.6564 36.3949 35.5319 36.5609L35.4885 36.6739C35.5493 36.7435 35.6189 36.7261 35.6537 36.8217C35.6885 36.9174 35.7493 37.013 35.7841 37.1174C35.7935 37.2246 35.8261 37.3285 35.8798 37.4217C35.9405 37.5276 35.9928 37.6381 36.0363 37.7522C36.0999 37.9098 36.1725 38.0637 36.2537 38.213C36.3123 38.3339 36.4063 38.434 36.5232 38.5C36.6969 38.6414 36.8832 38.7665 37.0798 38.8739C37.158 39.0913 37.5145 39.1783 37.6711 39.1609C37.8276 39.1435 38.0971 39.1609 38.3145 39.1609C38.5319 39.1609 38.5667 39.1087 38.6971 39.1087C38.7836 39.1218 38.8716 39.1218 38.958 39.1087H39.2189C39.2931 39.0996 39.366 39.0821 39.4363 39.0565C39.5841 39.0565 39.6363 39.1348 39.7319 39.3174C39.8015 39.2652 39.8276 39.0478 39.8624 38.9522C39.8671 38.9292 39.8671 38.9056 39.8624 38.8826H39.9058C39.9657 38.7682 40.0068 38.6449 40.0276 38.5174C40.0276 38.2043 40.1493 37.8826 40.1928 37.5696C40.1039 37.6909 40.0081 37.807 39.9058 37.9174Z" fill="#00B2E3"/>
<path d="M10.0624 28.2304C12.8956 30.6484 16.4984 31.9768 20.2232 31.9768C23.9481 31.9768 27.5508 30.6484 30.3841 28.2304H33.7754V24.1956C35.1395 21.8224 35.8574 19.1329 35.8574 16.3956C35.8574 13.6583 35.1395 10.9688 33.7754 8.59562V4.47389H30.3841C27.5508 2.05584 23.9481 0.727478 20.2232 0.727478C16.4984 0.727478 12.8956 2.05584 10.0624 4.47389H6.67106V8.54345C5.29729 10.9229 4.57407 13.622 4.57407 16.3695C4.57407 19.1171 5.29729 21.8162 6.67106 24.1956V28.2739L10.0624 28.2304ZM20.2189 3.06519C22.8461 3.06519 25.4143 3.84402 27.5989 5.30324C29.7836 6.76247 31.4866 8.83658 32.4928 11.2634C33.4989 13.6903 33.7631 16.361 33.2518 18.9379C32.7405 21.5149 31.4768 23.8824 29.6203 25.7413C27.7638 27.6002 25.398 28.867 22.8217 29.3817C20.2454 29.8963 17.5744 29.6357 15.1462 28.6327C12.7181 27.6297 10.6417 25.9294 9.17964 23.7466C7.71756 21.5639 6.93537 18.9967 6.93193 16.3695C6.92964 14.6232 7.27163 12.8936 7.93834 11.2795C8.60505 9.66544 9.5834 8.19865 10.8174 6.963C12.0515 5.72734 13.517 4.74708 15.1302 4.07826C16.7434 3.40944 18.4726 3.06519 20.2189 3.06519Z" fill="#00B2E3"/>
<path d="M11.758 10.1261L15.1667 24.8043C15.1526 25.1479 15.0682 25.4849 14.9186 25.7945C14.769 26.1041 14.5575 26.3797 14.2971 26.6043H19.758C19.5277 26.0948 19.3978 25.5456 19.3754 24.9869L20.5493 19.6304C20.8971 21.2304 21.2189 22.813 21.5667 24.4217C21.7472 25.1534 21.6673 25.9251 21.3406 26.6043H26.7667C26.3572 26.0189 26.144 25.3186 26.158 24.6043L28.2885 11.6478C28.6951 10.4743 29.2818 9.37131 30.0276 8.37823C28.2885 8.37823 26.4537 8.37823 24.8102 8.37823C25.4798 9.00432 25.0189 10.0217 24.958 10.7695L23.245 20.5608C23.2265 20.5515 23.2119 20.5358 23.204 20.5167C23.196 20.4976 23.1951 20.4762 23.2015 20.4565L20.4189 9.49128C19.4276 13.1174 18.6798 16.8217 17.645 20.4217L17.6015 20.3521L15.5493 10.5348L15.6537 8.37823H10.4363C11.073 8.78258 11.5424 9.40324 11.758 10.1261Z" fill="#00B2E3"/>
<path d="M35.1667 9.46521H35.5145V8.18695H35.9841V7.89999H34.6971V8.18695H35.1667V9.46521Z" fill="#00B2E3"/>
<path d="M36.1667 9.46521H36.4885V8.36086L36.8711 9.46521H37.1319L37.5319 8.35217V9.46521H37.8537V7.89999H37.3667L37.0189 8.97825L36.6624 7.89999H36.1754L36.1667 9.46521Z" fill="#00B2E3"/>
</g>
<defs>
<clipPath id="clip0_1_53">
<rect width="40" height="38.5652" fill="white" transform="translate(0.140625 0.717377)"/>
</clipPath>
</defs>
</svg>
